<svg width="1734" height="956" viewBox="0 0 1734 956" fill="none" xmlns="http://www.w3.org/2000/svg">
<path d="M1334 54H49V854H1234C1289.23 854 1334 809.228 1334 754V54Z" fill="url(#paint0_linear_530_228)"/>
<mask id="mask0_530_228" style="mask-type:alpha" maskUnits="userSpaceOnUse" x="49" y="54" width="1285" height="800">
<path d="M1334 54H49V854H1234C1289.23 854 1334 809.228 1334 754V54Z" fill="url(#paint1_linear_530_228)"/>
</mask>
<g mask="url(#mask0_530_228)">
<path d="M1374.57 398.525H1363.74C1361.5 398.525 1359.68 400.343 1359.68 402.586V646.864C1359.68 649.948 1357.18 652.448 1354.09 652.448C1351.01 652.448 1348.51 649.948 1348.51 646.864V490.796C1348.51 485.273 1344.03 480.796 1338.51 480.796H1328.05C1322.53 480.796 1318.05 485.273 1318.05 490.796V500.59C1318.05 506.113 1313.57 510.59 1308.05 510.59H1242.07C1237.86 510.59 1234.45 514 1234.45 518.207V522.441C1234.45 524.31 1232.94 525.825 1231.07 525.825C1229.2 525.825 1227.68 527.34 1227.68 529.21V583.553C1227.68 588.133 1223.97 591.845 1219.39 591.845C1214.81 591.845 1211.1 595.558 1211.1 600.137V636.354C1211.1 641.877 1206.62 646.354 1201.1 646.354H1200.11C1194.59 646.354 1190.11 650.831 1190.11 656.354V709.329C1190.11 711.385 1188.45 713.052 1186.39 713.052C1184.33 713.052 1182.67 711.385 1182.67 709.329V402.248C1182.67 400.566 1181.3 399.202 1179.62 399.202C1177.94 399.202 1176.57 397.838 1176.57 396.156V369.237C1176.57 366.34 1174.23 363.991 1171.33 363.991C1168.43 363.991 1166.08 361.642 1166.08 358.745V332.673C1166.08 330.71 1164.49 329.119 1162.53 329.119C1160.57 329.119 1158.98 327.528 1158.98 325.565V304.247C1158.98 298.724 1154.5 294.247 1148.98 294.247H1123.62C1118.1 294.247 1113.62 298.724 1113.62 304.247V325.565C1113.62 327.528 1112.03 329.119 1110.07 329.119C1108.11 329.119 1106.51 330.71 1106.51 332.673V358.745C1106.51 361.642 1104.17 363.991 1101.27 363.991C1098.37 363.991 1096.02 366.34 1096.02 369.237V396.325C1096.02 397.727 1094.89 398.863 1093.48 398.863C1092.08 398.863 1090.95 400 1090.95 401.402V610.638C1090.95 613.909 1088.29 616.561 1085.02 616.561C1081.75 616.561 1079.1 619.212 1079.1 622.484V705.775C1079.1 709.794 1075.84 713.052 1071.82 713.052H1065.22C1064.85 713.052 1064.55 712.748 1064.55 712.374C1064.55 712 1064.24 711.697 1063.87 711.697H1061.67C1061.02 711.697 1060.49 711.167 1060.49 710.512C1060.49 709.858 1061.02 709.327 1061.67 709.327H1062.85C1063.79 709.327 1064.55 708.569 1064.55 707.635C1064.55 706.7 1063.79 705.942 1062.85 705.942H1061.84C1061.09 705.942 1060.49 705.335 1060.49 704.587C1060.49 703.84 1061.09 703.233 1061.84 703.233H1062.85C1063.79 703.233 1064.55 702.475 1064.55 701.54C1064.55 700.605 1063.79 699.848 1062.85 699.848H1061.67C1061.02 699.848 1060.49 699.317 1060.49 698.663C1060.49 698.008 1061.02 697.478 1061.67 697.478H1062.85C1063.79 697.478 1064.55 696.72 1064.55 695.785C1064.55 694.85 1063.79 694.092 1062.85 694.092H1061.67C1061.02 694.092 1060.49 693.561 1060.49 692.907C1060.49 692.253 1061.02 691.722 1061.67 691.722H1062.85C1063.79 691.722 1064.55 690.964 1064.55 690.029C1064.55 689.094 1063.79 688.336 1062.85 688.336H1061.67C1061.02 688.336 1060.49 687.806 1060.49 687.151C1060.49 686.497 1061.02 685.966 1061.67 685.966H1062.85C1063.79 685.966 1064.55 685.208 1064.55 684.274C1064.55 683.339 1063.79 682.581 1062.85 682.581H1061.67C1061.02 682.581 1060.49 682.05 1060.49 681.396C1060.49 680.741 1061.02 680.211 1061.67 680.211H1062.85C1063.79 680.211 1064.55 679.453 1064.55 678.518C1064.55 677.583 1063.79 676.825 1062.85 676.825H1061.67C1061.02 676.825 1060.49 676.295 1060.49 675.64C1060.49 674.986 1061.02 674.455 1061.67 674.455H1062.85C1063.79 674.455 1064.55 673.697 1064.55 672.762C1064.55 671.827 1063.79 671.07 1062.85 671.07H1061.67C1061.02 671.07 1060.49 670.539 1060.49 669.885C1060.49 669.23 1061.02 668.7 1061.67 668.7H1062.85C1063.79 668.7 1064.55 667.942 1064.55 667.007C1064.55 666.072 1063.79 665.314 1062.85 665.314H1061.67C1061.02 665.314 1060.49 664.783 1060.49 664.129C1060.49 663.475 1061.02 662.944 1061.67 662.944H1062.85C1063.79 662.944 1064.55 662.186 1064.55 661.251C1064.55 660.316 1063.79 659.558 1062.85 659.558H1061.67C1061.02 659.558 1060.49 659.028 1060.49 658.373C1060.49 657.719 1061.02 657.188 1061.67 657.188H1062.85C1063.79 657.188 1064.55 656.43 1064.55 655.496C1064.55 654.561 1063.79 653.803 1062.85 653.803H1062.52C1061.39 653.803 1060.49 652.893 1060.49 651.772V651.094C1060.49 649.972 1061.39 649.063 1062.52 649.063H1062.85C1063.79 649.063 1064.55 648.305 1064.55 647.37C1064.55 646.435 1063.79 645.677 1062.85 645.677H1061.67C1061.02 645.677 1060.49 645.147 1060.49 644.492C1060.49 643.838 1061.02 643.307 1061.67 643.307H1062.85C1063.79 643.307 1064.55 642.549 1064.55 641.614C1064.55 640.679 1063.79 639.922 1062.85 639.922H1061.67C1061.02 639.922 1060.49 639.391 1060.49 638.737C1060.49 638.082 1061.02 637.552 1061.67 637.552H1062.85C1063.79 637.552 1064.55 636.794 1064.55 635.859C1064.55 634.924 1063.79 634.166 1062.85 634.166H1061.67C1061.02 634.166 1060.49 633.635 1060.49 632.981C1060.49 632.327 1061.02 631.796 1061.67 631.796H1062.85C1063.79 631.796 1064.55 631.038 1064.55 630.103C1064.55 629.168 1063.79 628.41 1062.85 628.41H1061.67C1061.02 628.41 1060.49 627.88 1060.49 627.225C1060.49 626.571 1061.02 626.04 1061.67 626.04H1062.85C1063.79 626.04 1064.55 625.282 1064.55 624.348C1064.55 623.413 1063.79 622.655 1062.85 622.655H1061.67C1061.02 622.655 1060.49 622.124 1060.49 621.47C1060.49 620.815 1061.02 620.285 1061.67 620.285H1062.85C1063.79 620.285 1064.55 619.527 1064.55 618.592C1064.55 617.657 1063.79 616.899 1062.85 616.899H1061.67C1061.02 616.899 1060.49 616.369 1060.49 615.714C1060.49 615.06 1061.02 614.529 1061.67 614.529H1062.85C1063.79 614.529 1064.55 613.771 1064.55 612.836C1064.55 611.901 1063.79 611.144 1062.85 611.144H1061.67C1061.02 611.144 1060.49 610.613 1060.49 609.959C1060.49 609.304 1061.02 608.774 1061.67 608.774H1062.85C1063.79 608.774 1064.55 608.016 1064.55 607.081C1064.55 606.146 1063.79 605.388 1062.85 605.388H1061.67C1061.02 605.388 1060.49 604.857 1060.49 604.203C1060.49 603.548 1061.02 603.018 1061.67 603.018H1062.85C1063.79 603.018 1064.55 602.26 1064.55 601.325C1064.55 600.39 1063.79 599.632 1062.85 599.632H1061.67C1061.02 599.632 1060.49 599.102 1060.49 598.447C1060.49 597.793 1061.02 597.262 1061.67 597.262H1062.85C1063.79 597.262 1064.55 596.504 1064.55 595.57C1064.55 594.635 1063.79 593.877 1062.85 593.877H1061.67C1061.02 593.877 1060.49 593.346 1060.49 592.692C1060.49 592.037 1061.02 591.507 1061.67 591.507H1062.85C1063.79 591.507 1064.55 590.749 1064.55 589.814C1064.55 588.879 1063.79 588.121 1062.85 588.121H1061.67C1061.02 588.121 1060.49 587.591 1060.49 586.936C1060.49 586.282 1061.02 585.751 1061.67 585.751H1062.85C1063.79 585.751 1064.55 584.993 1064.55 584.058C1064.55 583.123 1063.79 582.366 1062.85 582.366H1061.67C1061.02 582.366 1060.49 581.835 1060.49 581.181C1060.49 580.526 1061.02 579.996 1061.67 579.996H1062.85C1063.79 579.996 1064.55 579.238 1064.55 578.303C1064.55 577.368 1063.79 576.61 1062.85 576.61H1062.52C1061.39 576.61 1060.49 575.701 1060.49 574.579V573.224C1060.49 572.102 1061.39 571.193 1062.52 571.193H1062.85C1063.79 571.193 1064.55 570.435 1064.55 569.5C1064.55 568.565 1063.79 567.807 1062.85 567.807H1061.67C1061.02 567.807 1060.49 567.277 1060.49 566.622C1060.49 565.968 1061.02 565.437 1061.67 565.437H1062.85C1063.79 565.437 1064.55 564.679 1064.55 563.744C1064.55 562.81 1063.79 562.052 1062.85 562.052H1061.67C1061.02 562.052 1060.49 561.521 1060.49 560.867C1060.49 560.212 1061.02 559.682 1061.67 559.682H1062.85C1063.79 559.682 1064.55 558.924 1064.55 557.989C1064.55 557.054 1063.79 556.296 1062.85 556.296H1061.67C1061.02 556.296 1060.49 555.765 1060.49 555.111C1060.49 554.457 1061.02 553.926 1061.67 553.926H1062.85C1063.79 553.926 1064.55 553.168 1064.55 552.233C1064.55 551.298 1063.79 550.54 1062.85 550.54H1062.52C1061.39 550.54 1060.49 549.631 1060.49 548.51V546.308C1060.49 545.467 1059.8 544.785 1058.96 544.785C1058.12 544.785 1057.44 544.103 1057.44 543.262V541.061C1057.44 539.004 1055.77 537.336 1053.72 537.336H1053.38C1051.13 537.336 1049.32 535.518 1049.32 533.275V522.438C1049.32 520.756 1047.95 519.392 1046.27 519.392C1044.59 519.392 1043.22 518.029 1043.22 516.346V504.761C1043.22 500.06 1039.95 495.994 1035.36 494.991L1024.61 492.646C1022.03 492.051 1020.21 489.758 1020.21 487.114V455.572C1020.21 454.918 1019.68 454.388 1019.02 454.388C1018.37 454.388 1017.84 454.918 1017.84 455.572V487.473C1017.84 489.429 1016.02 490.879 1014.12 490.445C1012.21 490.012 1010.39 491.461 1010.39 493.417V516.854C1010.39 518.256 1009.26 519.392 1007.86 519.392C1006.45 519.392 1005.32 520.529 1005.32 521.931V533.275C1005.32 535.518 1003.5 537.336 1001.26 537.336H1000.41C998.635 537.336 997.195 538.776 997.195 540.553V542.246C997.195 543.087 996.513 543.769 995.672 543.769C994.831 543.769 994.149 544.451 994.149 545.292V546.647C994.149 548.236 992.86 549.525 991.271 549.525H961.503C955.981 549.525 951.503 554.002 951.503 559.525V577.105C951.503 582.628 947.026 587.105 941.503 587.105H916.83C915.588 587.105 914.357 587.337 913.2 587.788L882.797 599.632C881.775 600.041 881.105 601.031 881.105 602.132V613.853C881.105 615.348 882.318 616.561 883.813 616.561H884.489C885.611 616.561 886.52 617.47 886.52 618.592C886.52 619.714 885.611 620.623 884.489 620.623H883.137C882.015 620.623 881.105 621.533 881.105 622.655C881.105 623.777 882.015 624.686 883.137 624.686H884.489C885.611 624.686 886.52 625.596 886.52 626.718C886.52 627.839 885.611 628.749 884.489 628.749H883.137C882.015 628.749 881.105 629.658 881.105 630.78C881.105 631.902 882.015 632.812 883.137 632.812H884.489C885.611 632.812 886.52 633.721 886.52 634.843C886.52 635.965 885.611 636.874 884.489 636.874H883.137C882.015 636.874 881.105 637.784 881.105 638.906C881.105 640.028 882.015 640.937 883.137 640.937H884.489C885.611 640.937 886.52 641.847 886.52 642.969C886.52 644.091 885.611 645 884.489 645H883.137C882.015 645 881.105 645.91 881.105 647.031C881.105 648.153 882.015 649.063 883.137 649.063H884.997C885.838 649.063 886.52 649.745 886.52 650.586C886.52 651.428 885.838 652.11 884.997 652.11H854.219C850.036 652.11 846.295 649.507 844.842 645.585L836.79 623.855C835.389 620.076 830.041 620.082 828.65 623.865C826.954 628.477 819.828 627.154 819.838 622.24C819.845 618.879 819.845 615.519 819.845 612.159C819.845 607.419 819.845 602.679 819.845 597.939C819.845 584.397 819.845 570.854 819.507 557.312C819.507 551.556 819.168 545.462 819.168 539.706C818.83 527.179 818.491 514.652 817.814 501.787C817.476 495.693 817.476 489.599 817.137 483.504C816.461 471.655 816.122 460.143 815.445 448.294C815.445 446.939 815.107 445.585 815.107 444.231C814.43 433.735 813.753 423.578 813.076 413.083C811.722 394.123 810.03 375.164 808.338 356.204C808.214 354.475 808.046 352.701 807.865 350.915C807.337 345.695 802.919 341.646 797.672 341.646H734.252C729.398 341.646 725.078 345.256 725.078 350.11C724.74 354.173 724.401 358.235 724.063 362.298C723.724 365.684 723.386 369.408 723.047 372.794C722.371 379.226 722.032 385.659 721.355 392.092C721.017 395.139 721.017 397.848 720.678 400.895C720.34 406.312 720.001 411.729 719.325 417.146C718.986 419.516 718.986 421.886 718.986 423.917C718.648 431.027 717.971 438.137 717.632 444.908C717.632 447.278 717.294 449.648 717.294 452.018C716.955 459.466 716.617 466.576 716.278 474.025C716.278 475.717 715.94 477.072 715.94 478.765C715.602 485.536 715.263 492.646 714.925 499.417C714.925 500.771 714.925 502.126 714.925 503.48C714.586 511.267 714.248 519.054 714.248 526.841C714.248 528.534 714.248 529.888 714.248 531.581C713.909 539.706 713.909 547.832 713.571 555.619V556.635C713.571 564.76 713.233 572.886 713.233 580.673C713.233 581.688 713.233 582.704 713.233 583.72C713.233 591.845 713.233 599.971 713.233 608.096C713.233 609.112 713.233 610.466 713.233 611.482C713.233 613.894 713.233 616.307 713.233 618.763C713.233 622.782 709.975 626.04 705.956 626.04C701.937 626.04 698.679 629.298 698.679 633.317V714.578C698.679 719.344 694.815 723.208 690.048 723.208H682.264C681.797 723.208 681.418 722.83 681.418 722.362C681.418 721.895 681.797 721.516 682.264 721.516H682.941C683.782 721.516 684.464 720.834 684.464 719.993V719.315C684.464 718.473 683.782 717.792 682.941 717.792C682.1 717.792 681.418 717.11 681.418 716.268V714.913C681.418 714.072 682.1 713.39 682.941 713.39C683.782 713.39 684.464 712.708 684.464 711.867V711.189C684.464 710.348 683.782 709.666 682.941 709.666C682.1 709.666 681.418 708.984 681.418 708.143V706.449C681.418 705.608 682.1 704.926 682.941 704.926C683.782 704.926 684.464 704.244 684.464 703.403V702.725C684.464 701.884 683.782 701.202 682.941 701.202C682.1 701.202 681.418 700.52 681.418 699.679V697.985C681.418 697.144 682.1 696.462 682.941 696.462C683.782 696.462 684.464 695.78 684.464 694.939V694.261C684.464 693.42 683.782 692.738 682.941 692.738C682.1 692.738 681.418 692.056 681.418 691.215V689.521C681.418 688.68 682.1 687.998 682.941 687.998C683.782 687.998 684.464 687.316 684.464 686.475V685.797C684.464 684.955 683.782 684.274 682.941 684.274C682.1 684.274 681.418 683.592 681.418 682.75V681.057C681.418 680.216 682.1 679.534 682.941 679.534C683.782 679.534 684.464 678.852 684.464 678.011V677.332C684.464 676.491 683.782 675.809 682.941 675.809C682.1 675.809 681.418 675.128 681.418 674.286V672.593C681.418 671.751 682.1 671.07 682.941 671.07C683.782 671.07 684.464 670.388 684.464 669.546V668.868C684.464 668.027 683.782 667.345 682.941 667.345C682.1 667.345 681.418 666.663 681.418 665.822V664.128C681.418 663.287 682.1 662.605 682.941 662.605C683.782 662.605 684.464 661.923 684.464 661.082V660.404C684.464 659.563 683.782 658.881 682.941 658.881C682.1 658.881 681.418 658.199 681.418 657.358V655.664C681.418 654.823 682.1 654.141 682.941 654.141C683.782 654.141 684.464 653.459 684.464 652.618V651.94C684.464 651.099 683.782 650.417 682.941 650.417C682.1 650.417 681.418 649.735 681.418 648.894V647.2C681.418 646.359 682.1 645.677 682.941 645.677C683.782 645.677 684.464 644.995 684.464 644.154V643.476C684.464 642.635 683.782 641.953 682.941 641.953C682.1 641.953 681.418 641.271 681.418 640.43V638.736C681.418 637.895 682.1 637.213 682.941 637.213C683.782 637.213 684.464 636.531 684.464 635.69V633.658C684.464 632.816 683.782 632.135 682.941 632.135C682.1 632.135 681.418 631.453 681.418 630.611V628.918C681.418 628.077 682.1 627.395 682.941 627.395C683.782 627.395 684.464 626.713 684.464 625.872V625.194C684.464 624.352 683.782 623.67 682.941 623.67C682.1 623.67 681.418 622.989 681.418 622.147V620.115C681.418 619.274 682.1 618.592 682.941 618.592C683.782 618.592 684.464 617.91 684.464 617.069V616.391C684.464 615.55 683.782 614.868 682.941 614.868C682.1 614.868 681.418 614.186 681.418 613.345V611.651C681.418 610.81 682.1 610.128 682.941 610.128C683.782 610.128 684.464 609.446 684.464 608.605V607.927C684.464 607.086 683.782 606.404 682.941 606.404C682.1 606.404 681.418 605.722 681.418 604.881V603.187C681.418 602.346 682.1 601.664 682.941 601.664C683.782 601.664 684.464 600.982 684.464 600.141V599.463C684.464 598.621 683.782 597.939 682.941 597.939C682.1 597.939 681.418 597.258 681.418 596.416V594.723C681.418 593.882 682.1 593.2 682.941 593.2C683.782 593.2 684.464 592.518 684.464 591.677V590.998C684.464 590.157 683.782 589.475 682.941 589.475C682.1 589.475 681.418 588.793 681.418 587.952V586.259C681.418 585.417 682.1 584.735 682.941 584.735C683.782 584.735 684.464 584.054 684.464 583.212V582.534C684.464 581.693 683.782 581.011 682.941 581.011C682.1 581.011 681.418 580.329 681.418 579.488V577.794C681.418 576.953 682.1 576.271 682.941 576.271C683.782 576.271 684.464 575.589 684.464 574.748V574.07C684.464 573.229 683.782 572.547 682.941 572.547C682.1 572.547 681.418 571.865 681.418 571.024V569.33C681.418 568.489 682.1 567.807 682.941 567.807C683.782 567.807 684.464 567.125 684.464 566.284V565.606C684.464 564.765 683.782 564.083 682.941 564.083C682.1 564.083 681.418 563.401 681.418 562.56V560.866C681.418 560.025 682.1 559.343 682.941 559.343C683.782 559.343 684.464 558.661 684.464 557.82V555.788C684.464 554.947 683.782 554.265 682.941 554.265C682.1 554.265 681.418 553.583 681.418 552.742V551.048C681.418 550.207 682.1 549.525 682.941 549.525C683.782 549.525 684.464 548.843 684.464 548.002V547.324C684.464 546.482 683.782 545.8 682.941 545.8C682.1 545.8 681.418 545.119 681.418 544.277V542.584C681.418 541.742 682.1 541.061 682.941 541.061C683.782 541.061 684.464 540.379 684.464 539.537V538.859C684.464 538.018 683.782 537.336 682.941 537.336C682.1 537.336 681.418 536.654 681.418 535.813V534.12C681.418 533.278 682.1 532.596 682.941 532.596C683.782 532.596 684.464 531.915 684.464 531.073V530.395C684.464 529.554 683.782 528.872 682.941 528.872C682.1 528.872 681.418 528.19 681.418 527.349V521.931C681.418 521.09 682.1 520.408 682.941 520.408C683.782 520.408 684.464 519.726 684.464 518.885V517.869C684.464 516.466 683.327 515.33 681.925 515.33H677.019C675.71 515.33 674.649 514.269 674.649 512.96V512.402C674.649 511.401 675.46 510.59 676.461 510.59C677.951 510.59 678.805 508.893 677.917 507.697L665.776 491.337C664.331 489.392 662.051 488.244 659.628 488.244H659.421C655.307 488.244 651.972 484.91 651.972 480.796C651.972 480.048 651.295 479.174 651.295 478.426V458.958C651.295 458.304 650.765 457.774 650.111 457.774C649.457 457.774 648.926 458.304 648.926 458.958V478.479C648.926 479.198 648.25 480.077 648.25 480.796C648.25 484.91 644.915 488.244 640.801 488.244H640.594C638.171 488.244 635.891 489.392 634.446 491.338L621.634 508.601C621.024 509.423 621.611 510.59 622.635 510.59C623.323 510.59 623.881 511.148 623.881 511.836V512.96C623.881 514.269 622.82 515.33 621.511 515.33H616.605C615.203 515.33 614.066 516.466 614.066 517.869V518.547C614.066 519.575 614.899 520.408 615.927 520.408C616.955 520.408 617.789 521.242 617.789 522.27V527.011C617.789 528.039 616.955 528.872 615.927 528.872C614.899 528.872 614.066 529.706 614.066 530.734C614.066 531.762 614.899 532.596 615.927 532.596C616.955 532.596 617.789 533.43 617.789 534.458V535.475C617.789 536.503 616.955 537.336 615.927 537.336C614.899 537.336 614.066 538.17 614.066 539.198C614.066 540.227 614.899 541.061 615.927 541.061C616.955 541.061 617.789 541.894 617.789 542.922V543.939C617.789 544.967 616.955 545.8 615.927 545.8C614.899 545.8 614.066 546.634 614.066 547.663C614.066 548.691 614.899 549.525 615.927 549.525C616.955 549.525 617.789 550.358 617.789 551.386V552.403C617.789 553.431 616.955 554.265 615.927 554.265C614.899 554.265 614.066 555.099 614.066 556.127C614.066 557.155 614.899 557.989 615.927 557.989C616.955 557.989 617.789 558.822 617.789 559.85V560.867C617.789 561.895 616.955 562.729 615.927 562.729C614.899 562.729 614.066 563.563 614.066 564.591C614.066 565.619 614.899 566.453 615.927 566.453C616.955 566.453 617.789 567.286 617.789 568.314V569.331C617.789 570.359 616.955 571.193 615.927 571.193C614.899 571.193 614.066 572.027 614.066 573.055C614.066 574.083 614.899 574.917 615.927 574.917C616.955 574.917 617.789 575.75 617.789 576.779V577.795C617.789 578.824 616.955 579.657 615.927 579.657C614.899 579.657 614.066 580.491 614.066 581.519C614.066 582.547 614.899 583.381 615.927 583.381C616.955 583.381 617.789 584.215 617.789 585.243V586.26C617.789 587.288 616.955 588.121 615.927 588.121C614.899 588.121 614.066 588.955 614.066 589.983C614.066 591.011 614.899 591.845 615.927 591.845C616.955 591.845 617.789 592.679 617.789 593.707V594.724C617.789 595.752 616.955 596.585 615.927 596.585C614.899 596.585 614.066 597.419 614.066 598.447C614.066 599.475 614.899 600.309 615.927 600.309C616.955 600.309 617.789 601.143 617.789 602.171V603.188C617.789 604.216 616.955 605.049 615.927 605.049C614.899 605.049 614.066 605.883 614.066 606.911C614.066 607.94 614.899 608.774 615.927 608.774C616.955 608.774 617.789 609.607 617.789 610.635V611.652C617.789 612.68 616.955 613.513 615.927 613.513C614.899 613.513 614.066 614.348 614.066 615.376C614.066 616.404 614.899 617.238 615.927 617.238C616.955 617.238 617.789 618.071 617.789 619.099V620.116C617.789 621.144 616.955 621.978 615.927 621.978C614.899 621.978 614.066 622.812 614.066 623.84C614.066 624.868 614.899 625.702 615.927 625.702C616.955 625.702 617.789 626.535 617.789 627.563V628.58C617.789 629.608 616.955 630.442 615.927 630.442C614.899 630.442 614.066 631.276 614.066 632.304C614.066 633.332 614.899 634.166 615.927 634.166C616.955 634.166 617.789 634.999 617.789 636.027V637.044C617.789 638.072 616.955 638.906 615.927 638.906C614.899 638.906 614.066 639.74 614.066 640.768C614.066 641.796 614.899 642.63 615.927 642.63H617.281C617.561 642.63 617.789 642.857 617.789 643.138C617.789 643.418 617.561 643.646 617.281 643.646H599.514C597.083 643.646 595.112 641.675 595.112 639.244V635.52V630.78V627.056V622.316V618.592V613.852V610.128V605.388V601.664V596.924V593.2V588.46V584.735V579.996V576.271V571.531V567.807V563.067V559.343V554.603V550.879V546.139V542.415V538.013V534.289V529.549V525.825V521.085V517.361V512.621V508.897V504.496V500.771V496.031V492.307V487.567V483.843V479.103V475.379V470.639V466.915V462.175V458.451V453.711V449.987V445.247V441.522V436.783V433.058V428.318V424.594V419.854V416.13V411.39V407.666V402.926L594.939 395.635C594.839 391.468 592.165 387.799 588.228 386.429L578.149 382.922C574.858 381.777 571.421 384.22 571.421 387.705V389.251C571.421 391.194 569.846 392.769 567.903 392.769C565.932 392.769 564.346 391.15 564.385 389.18L564.829 367.22C564.923 362.558 561.782 358.449 557.257 357.317L535.87 351.969C529.861 350.466 523.945 354.732 523.473 360.908L520.314 402.249L519.976 406.989L519.637 410.713L519.299 415.453L518.96 419.177L518.622 423.917L518.283 427.641L517.945 432.381L517.607 436.105L517.268 440.845L516.93 444.57L516.591 449.309L516.253 453.034L515.914 457.774L515.576 461.498L515.237 466.238L514.899 469.962L514.56 474.702L514.222 478.426L513.884 483.166L513.545 486.89L513.207 491.63L512.868 495.354L512.849 495.618C512.646 498.465 511.235 501.09 508.973 502.831L507.228 504.173C505.001 505.887 503.607 508.465 503.391 511.267L503.053 514.991L502.715 519.731L502.376 523.455L502.038 528.195L501.699 531.919L501.361 536.659L501.022 540.383L500.684 544.785C500.684 545.72 499.926 546.478 498.991 546.478H471.085C465.562 546.478 461.085 550.955 461.085 556.478V595.063C461.085 597.961 458.736 600.309 455.839 600.309C452.942 600.309 450.593 602.658 450.593 605.555V709.668C450.593 713.594 447.411 716.776 443.485 716.776C439.56 716.776 436.378 713.594 436.378 709.668V293.569C436.378 292.073 435.166 290.861 433.67 290.861C432.175 290.861 430.963 289.649 430.963 288.153V251.092C430.963 245.569 426.485 241.092 420.963 241.092H363.457C357.934 241.092 353.457 245.569 353.457 251.092V288.492C353.457 289.987 352.245 291.2 350.749 291.2C349.254 291.2 348.042 292.412 348.042 293.907V474.196C348.042 476.906 345.844 479.103 343.134 479.103H339.242C338.681 479.103 338.226 479.558 338.226 480.119V480.458C338.226 480.832 337.923 481.135 337.549 481.135C337.176 481.135 336.873 481.438 336.873 481.811V485.536C336.873 485.91 337.176 486.213 337.549 486.213C337.923 486.213 338.226 486.516 338.226 486.89V487.229C338.226 487.603 337.923 487.906 337.549 487.906C337.176 487.906 336.873 488.209 336.873 488.583V492.307C336.873 492.681 337.176 492.984 337.549 492.984C337.923 492.984 338.226 493.287 338.226 493.661V494C338.226 494.374 337.923 494.677 337.549 494.677C337.176 494.677 336.873 494.98 336.873 495.354V499.079C336.873 499.453 337.176 499.756 337.549 499.756C337.923 499.756 338.226 500.059 338.226 500.432V500.772C338.226 501.145 337.923 501.448 337.549 501.448C337.176 501.448 336.873 501.751 336.873 502.125V505.85C336.873 506.224 337.176 506.527 337.549 506.527C337.923 506.527 338.226 506.83 338.226 507.204V507.543C338.226 507.917 337.923 508.22 337.549 508.22C337.176 508.22 336.873 508.523 336.873 508.897V512.621C336.873 512.995 337.176 513.298 337.549 513.298C337.923 513.298 338.226 513.601 338.226 513.975V514.314C338.226 514.688 337.923 514.991 337.549 514.991C337.176 514.991 336.873 515.294 336.873 515.668V519.393C336.873 519.766 337.176 520.07 337.549 520.07C337.923 520.07 338.226 520.373 338.226 520.746V521.085C338.226 521.459 337.923 521.762 337.549 521.762C337.176 521.762 336.873 522.065 336.873 522.439V526.164C336.873 526.538 337.176 526.841 337.549 526.841C337.923 526.841 338.226 527.144 338.226 527.518V527.857C338.226 528.231 337.923 528.534 337.549 528.534C337.176 528.534 336.873 528.837 336.873 529.211V532.935C336.873 533.309 337.176 533.612 337.549 533.612C337.923 533.612 338.226 533.915 338.226 534.289V534.628C338.226 535.002 337.923 535.305 337.549 535.305C337.176 535.305 336.873 535.608 336.873 535.982V539.707C336.873 540.08 337.176 540.383 337.549 540.383C337.923 540.383 338.226 540.686 338.226 541.06V541.399C338.226 541.773 337.923 542.076 337.549 542.076C337.176 542.076 336.873 542.379 336.873 542.753V546.478C336.873 546.852 337.176 547.155 337.549 547.155C337.923 547.155 338.226 547.458 338.226 547.832V548.171C338.226 548.545 337.923 548.848 337.549 548.848C337.176 548.848 336.873 549.151 336.873 549.524V553.249C336.873 553.623 337.176 553.926 337.549 553.926C337.923 553.926 338.226 554.229 338.226 554.603V554.942C338.226 555.316 337.923 555.619 337.549 555.619C337.176 555.619 336.873 555.922 336.873 556.296V560.02C336.873 560.394 337.176 560.697 337.549 560.697C337.923 560.697 338.226 561 338.226 561.374V561.713C338.226 562.087 337.923 562.39 337.549 562.39C337.176 562.39 336.873 562.693 336.873 563.067V566.792C336.873 567.166 337.176 567.469 337.549 567.469C337.923 567.469 338.226 567.772 338.226 568.146V568.485C338.226 568.858 337.923 569.161 337.549 569.161C337.176 569.161 336.873 569.465 336.873 569.838V573.563C336.873 573.937 337.176 574.24 337.549 574.24C337.923 574.24 338.226 574.543 338.226 574.917V575.256C338.226 575.63 337.923 575.933 337.549 575.933C337.176 575.933 336.873 576.236 336.873 576.61V580.334C336.873 580.708 337.176 581.011 337.549 581.011C337.923 581.011 338.226 581.314 338.226 581.688V588.798C338.226 589.172 337.923 589.475 337.549 589.475C337.176 589.475 336.873 589.778 336.873 590.152V593.877C336.873 594.251 337.176 594.554 337.549 594.554C337.923 594.554 338.226 594.857 338.226 595.231V595.57C338.226 595.944 337.923 596.247 337.549 596.247C337.176 596.247 336.873 596.55 336.873 596.924V597.77C336.873 598.612 336.19 599.294 335.349 599.294H324.196C318.673 599.294 314.196 594.817 314.196 589.294V497.906C314.196 492.383 309.719 487.906 304.196 487.906H264.628C259.106 487.906 254.628 492.383 254.628 497.906V551.051C254.628 555.818 250.764 559.682 245.998 559.682H239.399C238.277 559.682 237.367 558.772 237.367 557.65C237.367 556.528 236.458 555.619 235.336 555.619H233.813C231.851 555.619 230.26 554.028 230.26 552.065V424.933V281.042C230.26 279.546 229.047 278.334 227.552 278.334C226.057 278.334 224.844 277.122 224.844 275.626V202C224.844 196.477 220.367 192 214.844 192H141.093C135.57 192 131.093 196.477 131.093 202V275.627C131.093 277.122 129.881 278.334 128.385 278.334C126.89 278.334 125.678 279.546 125.678 281.042V639.247C125.678 642.798 122.799 645.677 119.247 645.677C115.696 645.677 112.817 642.798 112.817 639.247V510.771C112.817 505.248 108.339 500.771 102.817 500.771H100.14C94.6173 500.771 90.1401 496.294 90.1401 490.771V440.167C90.1401 438.111 88.4733 436.444 86.4172 436.444C84.3611 436.444 82.6942 434.777 82.6942 432.721V417.327C82.6942 411.805 78.217 407.327 72.6942 407.327H-12.9032C-18.426 407.327 -22.9032 411.805 -22.9032 417.327V432.721C-22.9032 434.777 -24.5701 436.444 -26.6262 436.444C-28.6823 436.444 -30.3491 438.111 -30.3491 440.167V660.392C-30.3491 665.915 -34.8263 670.392 -40.3491 670.392H-44.7178C-50.2406 670.392 -54.7178 665.915 -54.7178 660.392V529.054C-54.7178 523.531 -59.1949 519.054 -64.7178 519.054H-134.408C-139.931 519.054 -144.408 523.531 -144.408 529.054V604.714C-144.408 610.135 -148.802 614.529 -154.223 614.529C-159.644 614.529 -164.038 618.924 -164.038 624.344V701.542C-164.038 704.72 -166.614 707.296 -169.792 707.296C-172.97 707.296 -175.546 704.72 -175.546 701.542V439.83V435.427C-175.546 434.119 -176.606 433.058 -177.915 433.058H-179.268C-179.829 433.058 -180.284 432.604 -180.284 432.043C-180.284 431.482 -179.829 431.027 -179.268 431.027H-177.915C-176.606 431.027 -175.546 429.966 -175.546 428.658V426.625C-175.546 425.316 -176.606 424.256 -177.915 424.256H-179.268C-179.829 424.256 -180.284 423.801 -180.284 423.24C-180.284 422.679 -179.829 422.224 -179.268 422.224H-177.915C-176.606 422.224 -175.546 421.164 -175.546 419.855V417.822C-175.546 416.514 -176.606 415.453 -177.915 415.453H-179.268C-179.829 415.453 -180.284 414.998 -180.284 414.437C-180.284 413.876 -179.829 413.422 -179.268 413.422H-177.915C-176.606 413.422 -175.546 412.361 -175.546 411.052V409.019C-175.546 407.711 -176.606 406.65 -177.915 406.65H-179.607C-179.981 406.65 -180.284 406.347 -180.284 405.973C-180.284 405.599 -179.981 405.296 -179.607 405.296H-177.746C-176.344 405.296 -175.207 404.159 -175.207 402.758V401.063C-175.207 399.661 -176.344 398.525 -177.746 398.525H-179.268C-179.829 398.525 -180.284 398.07 -180.284 397.509C-180.284 396.948 -179.829 396.493 -179.268 396.493H-177.746C-176.344 396.493 -175.207 395.357 -175.207 393.955V392.26C-175.207 390.858 -176.344 389.722 -177.746 389.722H-179.268C-179.829 389.722 -180.284 389.267 -180.284 388.706C-180.284 388.145 -179.829 387.691 -179.268 387.691H-177.746C-176.344 387.691 -175.207 386.554 -175.207 385.152V383.458C-175.207 382.056 -176.344 380.919 -177.746 380.919H-179.268C-179.829 380.919 -180.284 380.465 -180.284 379.904C-180.284 379.343 -179.829 378.888 -179.268 378.888H-177.746C-176.344 378.888 -175.207 377.751 -175.207 376.349V358.407C-175.207 355.12 -176.858 352.081 -179.324 349.908C-189.463 340.978 -203.68 321.9 -203.976 295.601V294.924V294.076C-203.976 292.488 -205.264 291.2 -206.853 291.2H-207.867C-208.896 291.2 -209.729 292.033 -209.729 293.062C-209.729 294.09 -210.563 294.924 -211.591 294.924H-213.791C-216.034 294.924 -217.852 293.105 -217.852 290.862V237.536C-217.852 236.695 -218.534 236.013 -219.375 236.013C-220.216 236.013 -220.898 236.695 -220.898 237.536V294.416C-220.898 294.884 -221.277 295.262 -221.745 295.262C-222.212 295.262 -222.591 294.884 -222.591 294.416V293.4C-222.591 292.372 -223.424 291.538 -224.453 291.538H-226.821C-227.849 291.538 -228.683 292.372 -228.683 293.4C-228.683 294.429 -229.516 295.262 -230.545 295.262H-237.651C-238.68 295.262 -239.513 294.429 -239.513 293.4C-239.513 292.372 -240.347 291.538 -241.375 291.538H-242.559C-244.242 291.538 -245.605 292.902 -245.605 294.584V295.262C-245.605 321.941 -252.965 341.257 -261.531 350.354C-263.823 352.788 -265.574 355.842 -265.574 359.185V372.624C-265.574 372.718 -265.498 372.794 -265.405 372.794C-265.311 372.794 -265.236 372.87 -265.236 372.963V376.519C-265.236 378.201 -263.872 379.565 -262.19 379.565H-260.159C-259.598 379.565 -259.143 380.02 -259.143 380.581C-259.143 381.142 -259.598 381.596 -260.159 381.596H-262.19C-263.872 381.596 -265.236 382.96 -265.236 384.643V385.322C-265.236 387.004 -263.872 388.368 -262.19 388.368H-260.159C-259.598 388.368 -259.143 388.822 -259.143 389.383C-259.143 389.944 -259.598 390.399 -260.159 390.399H-262.359C-264.135 390.399 -265.574 391.839 -265.574 393.614V393.955C-265.574 395.731 -264.135 397.17 -262.359 397.17H-259.821C-259.447 397.17 -259.143 397.474 -259.143 397.848C-259.143 398.222 -259.447 398.525 -259.821 398.525H-262.359C-264.135 398.525 -265.574 399.964 -265.574 401.74V402.081C-265.574 403.856 -264.135 405.296 -262.359 405.296H-260.159C-259.598 405.296 -259.143 405.751 -259.143 406.312C-259.143 406.873 -259.598 407.327 -260.159 407.327H-262.359C-264.135 407.327 -265.574 408.767 -265.574 410.543V410.883C-265.574 412.659 -264.135 414.099 -262.359 414.099H-260.159C-259.598 414.099 -259.143 414.553 -259.143 415.114C-259.143 415.675 -259.598 416.13 -260.159 416.13H-262.359C-264.135 416.13 -265.574 417.57 -265.574 419.345V419.686C-265.574 421.462 -264.135 422.901 -262.359 422.901H-260.159C-259.598 422.901 -259.143 423.356 -259.143 423.917C-259.143 424.478 -259.598 424.933 -260.159 424.933H-262.359C-264.135 424.933 -265.574 426.372 -265.574 428.148V428.489C-265.574 430.264 -264.135 431.704 -262.359 431.704H-260.159C-259.598 431.704 -259.143 432.159 -259.143 432.72C-259.143 433.281 -259.598 433.735 -260.159 433.735H-262.528C-264.397 433.735 -265.913 435.251 -265.913 437.12V570.519C-265.913 575.753 -270.155 579.996 -275.389 579.996C-280.623 579.996 -284.866 584.238 -284.866 589.472V646.864C-284.866 649.761 -287.215 652.11 -290.112 652.11C-293.009 652.11 -295.358 654.459 -295.358 657.356V710.193C-295.358 712.345 -297.787 713.474 -299.938 713.393C-300.069 713.388 -300.161 713.381 -300.291 713.362C-300.413 713.345 -300.536 713.328 -300.66 713.31C-304.607 712.758 -307.542 709.414 -307.542 705.429V583.134C-307.542 579.169 -309.885 575.579 -313.514 573.982L-315.694 573.022C-315.898 572.932 -316.119 572.886 -316.342 572.886H-316.849C-318.251 572.886 -319.388 571.749 -319.388 570.346V568.992C-319.388 568.338 -319.919 567.807 -320.573 567.807C-321.227 567.807 -321.757 568.338 -321.757 568.992C-321.757 569.646 -322.288 570.177 -322.942 570.177H-323.086C-323.66 570.177 -324.127 570.643 -324.127 571.218C-324.127 571.773 -324.562 572.23 -325.116 572.258L-328.979 572.451C-330.022 572.503 -330.896 571.672 -330.896 570.628C-330.896 569.937 -331.286 569.305 -331.904 568.995L-332.819 568.538C-333.334 568.281 -333.904 568.155 -334.48 568.172L-354.279 568.763C-355.394 568.796 -356.28 569.709 -356.28 570.824C-356.28 571.963 -357.203 572.886 -358.341 572.886H-358.649C-359.957 572.886 -361.018 573.946 -361.018 575.255V597.758C-361.018 603.281 -365.495 607.758 -371.018 607.758H-388.586C-394.109 607.758 -398.586 603.281 -398.586 597.758V439.49C-398.586 437.06 -400.556 435.09 -402.986 435.09C-405.416 435.09 -407.386 433.12 -407.386 430.69V401.415C-407.386 395.892 -411.863 391.415 -417.386 391.415H-432.43C-435.608 391.415 -438.185 388.838 -438.185 385.659C-438.185 382.48 -440.762 379.904 -443.941 379.904H-447.828C-452.97 379.904 -457.139 375.735 -457.139 370.593C-457.139 365.451 -461.307 361.283 -466.449 361.283H-523.968C-529.49 361.283 -533.968 365.76 -533.968 371.283V381.415C-533.968 386.938 -538.445 391.415 -543.968 391.415H-562.551C-568.074 391.415 -572.551 395.892 -572.551 401.415V693.233C-572.551 698.756 -577.028 703.233 -582.551 703.233H-583.535C-589.058 703.233 -593.535 707.71 -593.535 713.233V722.873C-593.535 728.294 -597.93 732.688 -603.35 732.688C-608.771 732.688 -613.166 728.294 -613.166 722.873V648.906C-613.166 643.383 -617.643 638.906 -623.166 638.906H-633.626C-639.149 638.906 -643.626 634.429 -643.626 628.906V608.475C-643.626 608.243 -643.757 608.031 -643.965 607.927C-644.172 607.823 -644.303 607.611 -644.303 607.379V603.834C-644.303 602.427 -644.77 601.06 -645.632 599.947L-650.334 593.871C-651.69 592.119 -652.426 589.966 -652.426 587.75V581.77C-652.426 580.851 -652.791 579.969 -653.441 579.318C-654.092 578.668 -654.457 577.786 -654.457 576.867V562.221C-654.457 561.94 -654.684 561.713 -654.965 561.713C-655.245 561.713 -655.472 561.94 -655.472 562.221V577.106C-655.472 577.872 -655.777 578.607 -656.318 579.149C-656.86 579.691 -657.164 580.426 -657.164 581.192V588.694C-657.164 590.745 -657.795 592.747 -658.971 594.427L-663.193 600.46C-663.895 601.464 -664.272 602.659 -664.272 603.885V605.86C-664.272 606.623 -664.653 607.335 -665.287 607.758C-665.922 608.181 -666.303 608.893 -666.303 609.655V610.524C-666.303 611.749 -666.945 612.883 -667.995 613.513L-668.412 613.764C-669.203 614.239 -669.687 615.094 -669.687 616.017C-669.687 616.978 -670.212 617.863 -671.056 618.323L-671.549 618.592C-672.696 619.218 -673.41 620.421 -673.41 621.728V652.757C-673.41 656.586 -676.706 659.583 -680.518 659.22C-683.882 659.22 -686.61 656.492 -686.61 653.128V591.35C-686.61 585.827 -691.087 581.35 -696.61 581.35H-718.24C-723.762 581.35 -728.24 585.827 -728.24 591.35V619.087C-728.24 624.61 -732.717 629.087 -738.24 629.087H-744.639C-750.162 629.087 -754.639 633.565 -754.639 639.087V659.39C-754.639 661.166 -756.079 662.605 -757.854 662.605C-759.63 662.605 -761.07 664.045 -761.07 665.821V703.742C-761.07 705.144 -762.206 706.28 -763.608 706.28C-765.01 706.28 -766.146 705.144 -766.146 703.742V687.658C-766.146 685.789 -767.662 684.274 -769.531 684.274C-771.4 684.274 -772.915 682.758 -772.915 680.889V509.078C-772.915 503.556 -777.393 499.078 -782.915 499.078H-830.791C-873.098 499.078 -907.281 528.872 -907.281 571.193V595.049C-907.281 600.572 -911.759 605.049 -917.281 605.049H-921.158C-933.342 605.049 -943.157 626.04 -943.157 637.552V677.321C-943.157 682.844 -947.635 687.321 -953.157 687.321H-969.033C-974.556 687.321 -979.033 682.844 -979.033 677.321V639.765C-979.033 634.242 -983.511 629.765 -989.033 629.765H-993.064C-998.586 629.765 -1003.06 634.242 -1003.06 639.765V726.765C-1003.06 729.663 -1005.41 732.011 -1008.31 732.011C-1011.21 732.011 -1013.56 729.663 -1013.56 726.765V678.009C-1013.56 676.42 -1014.84 675.132 -1016.43 675.132C-1018.02 675.132 -1019.31 673.844 -1019.31 672.255V639.765C-1019.31 634.242 -1023.79 629.765 -1029.31 629.765H-1030.63C-1036.15 629.765 -1040.63 625.287 -1040.63 619.765V584.24C-1040.63 578.717 -1045.11 574.24 -1050.63 574.24H-1077C-1082.52 574.24 -1087 578.717 -1087 584.24V786C-1087 791.523 -1082.52 796 -1077 796H1393C1398.52 796 1403 791.523 1403 786V408.525C1403 403.002 1398.52 398.525 1393 398.525H1374.57ZM994.149 590.322C994.149 590.976 993.618 591.507 992.964 591.507H990.764C990.577 591.507 990.426 591.355 990.426 591.168V590.322C990.426 589.667 990.956 589.137 991.611 589.137H992.964C993.618 589.137 994.149 589.667 994.149 590.322ZM994.149 584.566C994.149 585.221 993.618 585.751 992.964 585.751H991.611C990.956 585.751 990.426 585.221 990.426 584.566C990.426 583.912 990.956 583.381 991.611 583.381H992.964C993.618 583.381 994.149 583.912 994.149 584.566ZM994.149 578.472C994.149 579.126 993.618 579.657 992.964 579.657H991.611C990.956 579.657 990.426 579.126 990.426 578.472C990.426 577.818 990.956 577.287 991.611 577.287H992.964C993.618 577.287 994.149 577.818 994.149 578.472ZM994.149 572.378C994.149 573.032 993.618 573.563 992.964 573.563H991.611C990.956 573.563 990.426 573.032 990.426 572.378C990.426 571.723 990.956 571.193 991.611 571.193H992.964C993.618 571.193 994.149 571.723 994.149 572.378ZM994.149 566.284C994.149 566.938 993.618 567.469 992.964 567.469H991.611C990.956 567.469 990.426 566.938 990.426 566.284C990.426 565.629 990.956 565.099 991.611 565.099H992.964C993.618 565.099 994.149 565.629 994.149 566.284ZM994.149 560.189C994.149 560.844 993.618 561.374 992.964 561.374H991.611C990.956 561.374 990.426 560.844 990.426 560.189C990.426 559.535 990.956 559.005 991.611 559.005H992.964C993.618 559.005 994.149 559.535 994.149 560.189ZM994.149 554.434C994.149 555.088 993.618 555.619 992.964 555.619H991.611C990.956 555.619 990.426 555.088 990.426 554.434C990.426 553.779 990.956 553.249 991.611 553.249H992.964C993.618 553.249 994.149 553.779 994.149 554.434Z" fill="url(#paint2_linear_530_228)"/>
<path d="M1147.89 549.501C1089.11 549.501 1041.56 650.395 1041.56 774.746H1254.33C1254.33 650.269 1206.66 549.501 1147.89 549.501Z" fill="url(#paint3_linear_530_228)"/>
<path d="M1147.89 549.501C1089.11 549.501 1041.56 650.395 1041.56 774.746H1254.33C1254.33 650.269 1206.66 549.501 1147.89 549.501Z" fill="url(#paint4_linear_530_228)"/>
<mask id="mask1_530_228" style="mask-type:alpha" maskUnits="userSpaceOnUse" x="1041" y="549" width="214" height="226">
<path d="M1147.89 549.501C1089.11 549.501 1041.56 650.395 1041.56 774.746H1254.33C1254.33 650.269 1206.66 549.501 1147.89 549.501Z" fill="url(#paint5_linear_530_228)"/>
</mask>
<g mask="url(#mask1_530_228)">
<path opacity="0.2" d="M1058.25 569.899C1091.94 554.553 1159.97 529.451 1162.6 551.812C1165.89 579.764 971.149 699.793 1037.7 674.307C1104.26 648.822 1161.78 578.942 1176.57 603.605C1191.36 628.269 1046.74 730.211 1095.22 725.279C1143.7 720.346 1203.68 606.894 1222.58 624.981C1241.48 643.067 1098.51 768.851 1130.56 779.538C1162.6 790.226 1250.52 611.827 1285.85 607.716" stroke="url(#paint6_linear_530_228)" stroke-width="2"/>
</g>
<path opacity="0.3" d="M1240.54 774.746H1254.33C1254.33 650.269 1206.66 549.501 1147.89 549.501C1145.57 549.501 1143.27 549.658 1140.99 549.966C1196.55 557.484 1240.54 655.176 1240.54 774.746Z" fill="#C9D983"/>
<path d="M1265.82 610.573C1222.82 610.573 1188.01 684.406 1188.01 775.403H1343.64C1343.52 684.406 1308.71 610.573 1265.82 610.573Z" fill="url(#paint7_linear_530_228)"/>
<mask id="mask2_530_228" style="mask-type:alpha" maskUnits="userSpaceOnUse" x="1188" y="610" width="156" height="166">
<path d="M1265.82 610.573C1222.82 610.573 1188.01 684.406 1188.01 775.403H1343.64C1343.52 684.406 1308.71 610.573 1265.82 610.573Z" fill="url(#paint8_linear_530_228)"/>
</mask>
<g mask="url(#mask2_530_228)">
<path opacity="0.2" d="M1241.37 573.142C1210.84 622.873 1161.92 712.132 1210.51 671.321C1271.25 620.306 1329.1 636.669 1305 671.321C1280.89 705.972 1210.51 687.684 1217.26 724.26C1222.66 753.521 1301.14 710.143 1339.7 684.796" stroke="url(#paint9_linear_530_228)" stroke-width="2"/>
</g>
<path opacity="0.3" fill-rule="evenodd" clip-rule="evenodd" d="M1327.23 775.403H1343.64C1343.52 684.406 1308.71 610.573 1265.82 610.573C1263.05 610.573 1260.31 610.881 1257.6 611.481C1296.64 620.178 1327.11 690.281 1327.23 775.403Z" fill="#C9D983"/>
<path d="M959.478 530.457C891.311 530.457 836.02 639.247 836.02 773.433H1082.94C1082.81 639.247 1027.64 530.457 959.478 530.457Z" fill="url(#paint10_linear_530_228)"/>
<mask id="mask3_530_228" style="mask-type:alpha" maskUnits="userSpaceOnUse" x="836" y="530" width="247" height="244">
<path d="M959.478 530.457C891.311 530.457 836.02 639.247 836.02 773.433H1082.94C1082.81 639.247 1027.64 530.457 959.478 530.457Z" fill="url(#paint11_linear_530_228)"/>
</mask>
<g mask="url(#mask3_530_228)">
<path opacity="0.2" d="M846.526 579.485C859.538 564.129 888.768 536.768 901.594 550.169C917.627 566.921 883.471 624.853 905.777 631.833C928.083 638.813 959.45 529.23 986.636 539.7C1013.82 550.169 869.529 719.779 919.718 726.061C969.906 732.343 992.909 580.881 1014.52 591.35C1036.13 601.82 965.724 683.484 990.121 707.215C1014.52 730.947 1027.07 619.27 1046.58 631.833C1066.1 644.397 1052.16 707.215 1033.34 749.792" stroke="url(#paint12_linear_530_228)" stroke-width="2"/>
</g>
<path opacity="0.2" d="M1055.35 773.433H1082.94C1082.81 639.247 1027.64 530.457 959.478 530.457C954.816 530.457 950.214 530.966 945.687 531.957C1007.35 545.456 1055.24 648.423 1055.35 773.433Z" fill="#C9D983"/>
<path d="M1135.41 624.526H1133.12V772.23H1135.41V624.526Z" fill="#0C5E59"/>
<path d="M1150.91 615.174C1146.01 615.174 1141.45 618.709 1138.26 621.903C1140.42 618.823 1143.39 615.06 1145.67 614.375C1149.66 613.121 1152.85 613.691 1152.85 613.691C1152.85 613.691 1149.2 608.558 1143.73 610.954C1141.33 611.98 1139.28 615.402 1137.8 618.709C1138.6 615.63 1139.28 611.98 1138.71 608.672C1137.34 600.232 1128 599.548 1128 599.548C1128 599.548 1133.24 606.848 1134.15 615.402C1134.27 616.542 1134.38 617.683 1134.49 618.709C1133.7 613.805 1131.76 607.874 1126.97 604.68C1115.11 596.81 1107.7 610.611 1107.7 610.611C1107.7 610.611 1114.43 606.391 1123.32 610.84C1130.39 614.375 1133.35 621.903 1134.27 624.983C1133.13 622.701 1128.22 614.033 1120.47 612.778C1108.73 610.84 1105.76 625.667 1105.76 625.667C1105.76 625.667 1112.49 620.306 1120.81 620.648C1127.31 620.991 1131.87 623.614 1134.15 625.667C1132.9 625.325 1130.28 624.754 1127.08 624.64C1116.71 624.526 1114.54 638.441 1114.54 638.441L1134.27 626.351C1133.35 627.948 1131.64 631.37 1130.73 633.651C1129.36 636.845 1130.28 644.03 1130.28 644.03C1130.28 644.03 1133.47 638.555 1134.38 635.02C1135.29 631.598 1135.06 628.062 1134.95 626.351L1148.29 640.837C1148.29 640.837 1151.59 632.054 1141.45 627.834C1140.08 627.264 1138.94 626.807 1138.03 626.465C1140.42 626.807 1143.39 627.834 1146.46 629.773C1152.28 633.537 1156.04 638.783 1156.04 638.783C1156.04 638.783 1159.69 628.176 1150.8 623.842C1147.83 622.473 1144.53 622.587 1141.68 623.272C1143.84 622.017 1146.69 621.105 1150 621.561C1158.09 622.587 1160.37 628.29 1160.37 628.29C1160.37 628.29 1162.65 615.174 1150.91 615.174Z" fill="url(#paint13_linear_530_228)"/>
<path d="M1048.42 533.744H1044.77V774.975H1048.42V533.744Z" fill="#0C5E59"/>
<path d="M1071.99 512.951C1063.09 512.951 1054.69 519.332 1048.84 525.203C1052.78 519.588 1058.26 512.823 1062.45 511.419C1069.58 509.122 1075.56 510.27 1075.56 510.27C1075.56 510.27 1068.81 500.826 1058.89 505.293C1054.44 507.207 1050.75 513.461 1048.08 519.46C1049.6 513.844 1050.62 507.207 1049.73 501.081C1047.31 485.765 1030.14 484.488 1030.14 484.488C1030.14 484.488 1039.68 497.762 1041.46 513.461C1041.72 515.503 1041.84 517.545 1041.97 519.46C1040.44 510.398 1036.88 499.549 1028.23 493.806C1006.73 479.511 993.248 504.782 993.248 504.782C993.248 504.782 1005.59 497.124 1021.74 505.293C1034.47 511.674 1039.94 525.586 1041.72 531.074C1039.55 526.863 1030.78 511.164 1016.53 508.739C995.156 505.165 989.686 532.351 989.686 532.351C989.686 532.351 1001.9 522.523 1017.04 523.161C1028.74 523.672 1037.26 528.522 1041.46 532.351C1039.3 531.713 1034.34 530.564 1028.61 530.564C1009.66 530.309 1005.71 555.708 1005.71 555.708L1041.72 533.627C1040.19 536.563 1037.01 542.689 1035.23 547.029C1032.81 552.9 1034.34 565.918 1034.34 565.918C1034.34 565.918 1040.19 555.963 1041.84 549.454C1043.5 543.2 1043.12 536.69 1042.86 533.627L1067.29 560.047C1067.29 560.047 1073.27 543.965 1054.95 536.18C1052.53 535.159 1050.37 534.265 1048.71 533.627C1053.17 534.265 1058.51 536.052 1063.98 539.626C1074.67 546.518 1081.41 555.963 1081.41 555.963C1081.41 555.963 1088.02 536.435 1071.74 528.777C1066.4 526.224 1060.29 526.607 1055.07 527.756C1059.02 525.459 1064.11 523.799 1070.34 524.565C1085.1 526.352 1089.17 536.946 1089.17 536.946C1089.17 536.946 1093.37 512.823 1071.99 512.951Z" fill="url(#paint14_linear_530_228)"/>
<g clip-path="url(#clip0_530_228)">
<path d="M1364 726.179H1237.92V779.845H1364V726.179Z" fill="#F9F8EF"/>
<path fill-rule="evenodd" clip-rule="evenodd" d="M1301.66 712.19V712.313C1302.66 709.516 1304.66 705.061 1308.03 698.416C1314.72 685.698 1322.18 675.926 1322.18 675.926C1322.18 675.926 1318.91 686.783 1312.23 699.502C1306.32 710.887 1303.08 715.479 1301.66 716.174V716.823C1303.37 714.563 1307.14 710.686 1313.78 704.62C1324.82 694.694 1335.71 687.559 1335.71 687.559C1335.71 687.559 1328.71 696.71 1317.67 706.792C1311.2 712.618 1306.91 716.113 1304.24 717.906C1306.96 716.215 1311.2 713.897 1317.36 710.824C1331.04 704 1343.48 699.812 1343.48 699.812C1343.48 699.812 1333.84 706.792 1320.16 713.616C1309.74 718.932 1304.1 721.189 1301.66 721.62V722.087C1303.85 720.868 1309.46 718.912 1320.16 715.943C1335.24 711.755 1348.45 709.894 1348.45 709.894C1348.45 709.894 1336.95 715.012 1321.87 719.2C1316.95 720.565 1313.03 721.567 1309.95 722.267C1313.07 721.748 1317.09 721.187 1322.18 720.596C1338.19 718.579 1351.56 718.734 1351.56 718.734C1351.56 718.734 1338.97 722.147 1322.96 724.008C1310.06 725.632 1303.72 725.847 1301.66 725.384V725.714H1300.1V725.492C1299.82 725.575 1299.42 725.645 1298.86 725.714H1294.35C1290.93 725.559 1285.8 725.249 1278.65 724.318C1262.63 722.302 1250.04 719.045 1250.04 719.045C1250.04 719.045 1263.41 718.89 1279.43 720.906C1284.24 721.465 1288.09 721.982 1291.13 722.457C1288.14 721.765 1284.38 720.799 1279.74 719.51C1264.5 715.322 1253.15 710.204 1253.15 710.204C1253.15 710.204 1266.37 712.065 1281.45 716.253C1292.4 719.296 1298.03 721.274 1300.1 722.485V721.938C1297.75 721.543 1292.09 719.238 1281.45 713.926C1267.77 707.102 1258.13 700.122 1258.13 700.122C1258.13 700.122 1270.56 704.31 1284.25 711.134C1290.03 714.018 1294.11 716.236 1296.85 717.896C1294.12 716.021 1289.95 712.599 1283.93 707.102C1272.9 697.02 1265.9 687.869 1265.9 687.869C1265.9 687.869 1276.78 694.849 1287.82 704.93C1292.57 709.266 1295.85 712.484 1297.96 714.792C1296.15 712.439 1293.33 707.785 1289.22 699.967C1282.54 687.249 1279.27 676.391 1279.27 676.391C1279.27 676.391 1286.89 686.163 1293.42 698.881C1297.18 706.216 1299.24 710.92 1300.1 713.648V712.191C1299.27 710.265 1298.7 704.703 1298.7 693.608C1298.7 679.338 1300.88 667.706 1300.88 667.706C1300.88 667.706 1303.06 679.338 1303.06 693.608C1303.06 704.7 1302.49 710.263 1301.66 712.19ZM1300.1 716.732C1299.87 716.713 1299.57 716.538 1299.19 716.186C1299.55 716.614 1299.85 716.998 1300.1 717.342V716.732ZM1300.1 719.675C1299.72 719.575 1299.23 719.36 1298.62 719.015C1299.21 719.411 1299.7 719.765 1300.1 720.077V719.675ZM1301.66 719.646C1302.08 719.321 1302.61 718.953 1303.24 718.541C1302.59 718.928 1302.07 719.182 1301.66 719.315V719.646ZM1300.1 723.882C1299.6 723.916 1298.9 723.881 1297.96 723.767C1298.95 724.021 1299.65 724.259 1300.1 724.478V723.882ZM1301.66 724.231C1302.24 723.961 1303.17 723.663 1304.5 723.34C1303.23 723.53 1302.3 723.604 1301.66 723.58V724.231ZM1292.48 725.714H1263.41C1267.92 725.404 1273.36 725.249 1279.11 725.249C1284.71 725.249 1289.22 725.404 1292.48 725.714ZM1309.12 725.714H1338.19C1333.68 725.404 1328.24 725.094 1322.49 725.249C1316.74 725.404 1312.38 725.559 1309.12 725.714Z" fill="url(#paint15_linear_530_228)"/>
</g>
<path d="M970.06 746.595C967.78 736.102 964.018 726.179 959.001 717.054C958.317 715.8 957.519 714.431 956.721 713.176C950.907 703.482 943.724 694.813 935.402 687.285C934.376 686.259 933.236 685.346 932.096 684.434C923.203 677.02 913.056 670.975 902.112 666.641C900.744 666.071 899.376 665.615 898.007 665.158C887.063 661.28 875.206 659.113 863.007 658.885C862.323 658.885 861.525 658.885 860.841 658.885C860.157 658.885 859.359 658.885 858.675 658.885C846.362 659.113 834.619 661.28 823.675 665.158C822.307 665.615 820.939 666.185 819.57 666.641C808.626 670.975 798.479 677.02 789.587 684.434C788.447 685.346 787.306 686.373 786.28 687.285C777.958 694.813 770.661 703.482 764.961 713.176C764.163 714.431 763.479 715.8 762.681 717.054C757.665 726.179 753.902 736.102 751.622 746.595C751.28 748.078 751.052 749.561 750.71 751.043C749.57 757.431 749 763.932 749 770.547H972.568C972.568 763.932 971.998 757.317 970.858 751.043C970.63 749.561 970.402 748.078 970.06 746.595Z" fill="url(#paint16_linear_530_228)"/>
<path opacity="0.3" d="M858.676 658.771V770.547H863.008V658.771C862.324 658.771 861.526 658.771 860.842 658.771C860.044 658.771 859.36 658.771 858.676 658.771Z" fill="url(#paint17_linear_530_228)"/>
<path opacity="0.3" d="M819.57 666.641L847.388 770.661H851.834L823.561 665.158C822.306 665.615 820.938 666.071 819.57 666.641Z" fill="url(#paint18_linear_530_228)"/>
<path opacity="0.3" d="M786.28 687.285L834.391 770.547H839.294L789.586 684.434C788.446 685.346 787.306 686.373 786.28 687.285Z" fill="url(#paint19_linear_530_228)"/>
<path opacity="0.3" d="M762.681 717.054L816.264 770.661H822.307L764.847 713.176C764.163 714.431 763.365 715.8 762.681 717.054Z" fill="url(#paint20_linear_530_228)"/>
<path opacity="0.3" d="M750.71 751.043L784.57 770.547H793.235L751.622 746.481C751.28 748.078 751.052 749.561 750.71 751.043Z" fill="url(#paint21_linear_530_228)"/>
<path opacity="0.3" d="M869.734 770.661H874.181L901.998 666.641C900.63 666.071 899.262 665.615 897.894 665.158L869.734 770.661Z" fill="url(#paint22_linear_530_228)"/>
<path opacity="0.3" d="M882.274 770.661H887.291L935.402 687.399C934.376 686.373 933.236 685.461 932.096 684.548L882.274 770.661Z" fill="url(#paint23_linear_530_228)"/>
<g opacity="0.3">
<path d="M899.262 770.661H905.304L958.888 717.054C958.204 715.8 957.406 714.431 956.607 713.176L899.262 770.661Z" fill="url(#paint24_linear_530_228)"/>
</g>
<path d="M928.447 770.661H937.112L970.972 751.157C970.744 749.675 970.402 748.192 970.06 746.709L928.447 770.661Z" fill="#084F15"/>
<path d="M1053.74 755.378C1052.26 748.762 1049.87 742.375 1046.67 736.558C1046.22 735.76 1045.76 734.961 1045.31 734.049C1041.66 727.89 1037.1 722.415 1031.74 717.625C1031.05 717.054 1030.37 716.37 1029.57 715.8C1023.87 711.123 1017.49 707.245 1010.53 704.508C1009.74 704.166 1008.82 703.824 1007.91 703.596C1000.96 701.086 993.432 699.718 985.68 699.604C985.223 699.604 984.767 699.604 984.311 699.604C983.855 699.604 983.399 699.604 982.943 699.604C975.191 699.718 967.666 701.2 960.712 703.596C959.8 703.938 959.002 704.166 958.09 704.508C951.135 707.245 944.751 711.123 939.051 715.8C938.367 716.37 937.682 717.054 936.884 717.625C931.526 722.415 926.966 727.89 923.318 734.049C922.862 734.847 922.405 735.646 921.949 736.558C918.757 742.375 916.363 748.648 914.881 755.378C914.653 756.29 914.539 757.316 914.311 758.229C913.627 762.221 913.171 766.441 913.171 770.661H1055.22C1055.22 766.441 1054.88 762.221 1054.08 758.229C1054.2 757.202 1053.97 756.29 1053.74 755.378Z" fill="url(#paint25_linear_530_228)"/>
<path opacity="0.3" d="M982.942 699.604V770.661H985.679V699.604C985.223 699.604 984.767 699.604 984.31 699.604C983.854 699.604 983.398 699.604 982.942 699.604Z" fill="url(#paint26_linear_530_228)"/>
<path opacity="0.3" d="M958.203 704.508L975.874 770.547H978.724L960.825 703.482C959.913 703.938 959.001 704.166 958.203 704.508Z" fill="url(#paint27_linear_530_228)"/>
<path opacity="0.3" d="M936.998 717.739L967.552 770.661H970.744L939.164 715.914C938.366 716.484 937.682 717.054 936.998 717.739Z" fill="url(#paint28_linear_530_228)"/>
<path opacity="0.3" d="M921.949 736.558L956.037 770.547H959.914L923.431 734.049C922.975 734.961 922.405 735.76 921.949 736.558Z" fill="url(#paint29_linear_530_228)"/>
<path opacity="0.3" d="M914.425 758.229L935.972 770.661H941.444L914.995 755.378C914.767 756.29 914.539 757.202 914.425 758.229Z" fill="url(#paint30_linear_530_228)"/>
<path opacity="0.3" d="M990.011 770.661H992.861L1010.53 704.622C1009.73 704.28 1008.82 703.938 1007.91 703.71L990.011 770.661Z" fill="url(#paint31_linear_530_228)"/>
<path opacity="0.3" d="M997.992 770.661H1001.18L1031.74 717.739C1031.05 717.168 1030.37 716.484 1029.57 715.914L997.992 770.661Z" fill="url(#paint32_linear_530_228)"/>
<path opacity="0.3" d="M1008.82 770.661H1012.7L1046.79 736.672C1046.33 735.874 1045.87 735.075 1045.42 734.163L1008.82 770.661Z" fill="url(#paint33_linear_530_228)"/>
<path opacity="0.3" d="M1027.29 770.661H1032.76L1054.31 758.229C1054.2 757.316 1053.97 756.29 1053.74 755.378L1027.29 770.661Z" fill="url(#paint34_linear_530_228)"/>
<path d="M1339 763H43V858.58H1339V763Z" fill="url(#paint35_linear_530_228)"/>
<mask id="mask4_530_228" style="mask-type:alpha" maskUnits="userSpaceOnUse" x="43" y="763" width="1296" height="96">
<path d="M1339 763H43V858.58H1339V763Z" fill="url(#paint36_linear_530_228)"/>
</mask>
<g mask="url(#mask4_530_228)">
<path opacity="0.7" fill-rule="evenodd" clip-rule="evenodd" d="M593.791 801.025C585.187 810.086 576.408 816.265 567.025 815.839C564.698 815.733 562.829 815.254 561.43 814.366C560.001 813.458 559.13 812.165 558.754 810.599C558.386 809.067 558.501 807.313 558.938 805.437C559.376 803.553 560.154 801.482 561.177 799.282C564.923 791.224 572.178 780.992 579.203 771.085L579.203 771.084L579.204 771.084C579.817 770.219 580.429 769.356 581.036 768.497C584.834 763.13 588.475 757.913 591.39 753.215C594.318 748.496 596.458 744.388 597.315 741.223C597.744 739.64 597.823 738.395 597.6 737.466C597.39 736.592 596.904 735.95 596.02 735.516C595.086 735.057 593.656 734.81 591.564 734.929C589.484 735.048 586.837 735.524 583.533 736.425C577.026 738.199 569.777 742.292 561.941 748.133C554.114 753.967 545.76 761.5 537.043 770.091C524.755 782.201 511.797 796.36 498.618 810.761L498.618 810.761L498.617 810.762L498.615 810.764C493.085 816.807 487.517 822.892 481.942 828.886C463.111 849.134 444.221 868.336 426.669 881.156C409.188 893.925 392.682 900.626 378.784 895.15C371.913 892.444 368.453 888.555 368.041 883.647C367.642 878.885 370.166 873.516 374.295 867.91C382.583 856.654 397.982 843.61 412.933 831.083C413.469 830.634 414.005 830.185 414.541 829.737L414.607 829.681L414.637 829.656C421.548 823.868 428.316 818.2 434.23 812.858C440.638 807.069 445.992 801.708 449.421 797.036C451.136 794.7 452.337 792.58 452.96 790.703C453.581 788.831 453.607 787.273 453.085 785.979C452.564 784.689 451.431 783.497 449.399 782.491C447.359 781.481 444.474 780.691 440.583 780.192C428.21 778.606 412.336 782.338 394.656 789.592C377.006 796.835 357.681 807.534 338.457 819.734C300.01 844.134 262.063 874.475 238.872 894.969L237.548 893.471C260.797 872.925 298.828 842.516 337.385 818.046C356.663 805.811 376.097 795.046 393.897 787.742C411.668 780.45 427.938 776.554 440.837 778.208C444.843 778.722 447.971 779.552 450.287 780.699C452.613 781.851 454.182 783.355 454.939 785.229C455.694 787.1 455.575 789.173 454.858 791.333C454.143 793.486 452.812 795.797 451.034 798.219C447.477 803.064 441.997 808.537 435.571 814.342C429.628 819.71 422.833 825.401 415.93 831.182L415.928 831.184L415.928 831.184L415.905 831.203C415.343 831.673 414.78 832.145 414.217 832.617C399.198 845.2 384.019 858.076 375.905 869.095C371.832 874.626 369.699 879.483 370.034 883.48C370.357 887.33 373.022 890.731 379.517 893.29C392.348 898.344 408.04 892.287 425.49 879.541C442.869 866.847 461.644 847.776 480.478 827.524C486.026 821.558 491.58 815.489 497.102 809.455L497.102 809.455C510.297 795.036 523.312 780.815 535.639 768.667C544.387 760.045 552.815 752.441 560.745 746.53C568.666 740.626 576.149 736.366 583.007 734.495C586.386 733.574 589.181 733.062 591.449 732.933C593.705 732.804 595.529 733.047 596.902 733.721C598.325 734.42 599.197 735.552 599.545 736.999C599.88 738.392 599.715 740.012 599.246 741.746C598.306 745.213 596.028 749.533 593.09 754.269C590.139 759.025 586.465 764.288 582.669 769.653C582.113 770.438 581.554 771.226 580.995 772.015L580.891 772.162L580.869 772.194C573.803 782.16 566.655 792.243 562.99 800.125C562.001 802.252 561.282 804.187 560.886 805.89C560.488 807.6 560.43 809.014 560.699 810.133C560.959 811.218 561.532 812.061 562.502 812.677C563.502 813.312 564.987 813.744 567.115 813.841C575.552 814.225 583.783 808.659 592.341 799.647C599.284 792.336 606.277 782.94 613.624 773.068L613.624 773.067L613.625 773.067L613.629 773.06L613.646 773.038C615.317 770.792 617.007 768.522 618.718 766.246C627.932 753.995 637.76 741.613 648.661 732.295C659.567 722.972 671.637 716.64 685.33 716.64V718.64C672.293 718.64 660.67 724.66 649.96 733.815C639.244 742.976 629.53 755.198 620.317 767.449C618.617 769.709 616.933 771.972 615.263 774.216L615.261 774.218L615.261 774.219C607.91 784.097 600.825 793.617 593.791 801.025ZM979.118 747.721C977.124 744.595 973.504 742.744 967.241 742.94C954.784 743.329 942.887 753.391 931.226 768.694C919.611 783.938 908.459 804.067 897.413 824.032L897.26 824.307C886.288 844.138 875.414 863.791 864.346 878.1C858.785 885.29 853.134 891.187 847.348 895.084C841.55 898.989 835.56 900.924 829.373 900.071C823.271 899.229 819.219 896.668 816.888 892.716C814.59 888.818 814.065 883.733 814.618 878.025C815.723 866.619 821.202 852.103 826.757 837.964C827.195 836.848 827.634 835.735 828.072 834.625L828.099 834.557L828.099 834.556C833.229 821.538 838.146 809.064 839.686 799.593C840.525 794.432 840.318 790.391 838.803 787.673C837.35 785.067 834.546 783.44 829.51 783.44C824.557 783.44 819.739 785.628 814.95 789.613C810.156 793.601 805.459 799.335 800.774 806.286C792.922 817.938 785.209 832.846 777.189 848.35C775.632 851.358 774.064 854.389 772.482 857.423C762.765 876.046 752.496 894.763 740.981 908.826C729.48 922.872 716.568 932.48 701.53 932.48C694.101 932.48 689.24 930.546 686.625 926.821C684.041 923.141 683.879 918.019 685.059 912.196C686.246 906.339 688.839 899.537 692.074 892.287C694.814 886.146 698.036 879.636 701.291 873.061L701.292 873.06L701.292 873.06C701.882 871.867 702.474 870.673 703.063 869.477C710.782 853.837 718.18 838.207 719.674 826.108C720.418 820.081 719.671 815.107 716.942 811.459C714.223 807.823 709.374 805.289 701.431 804.495C675.854 801.937 649.905 813.128 627.778 828.301C605.669 843.461 587.518 862.501 577.582 875.391L575.998 874.169C586.042 861.139 604.341 841.947 626.647 826.651C648.935 811.368 675.366 799.879 701.63 802.505C709.886 803.331 715.365 806.011 718.544 810.261C721.712 814.497 722.433 820.079 721.659 826.353C720.115 838.858 712.528 854.818 704.857 870.363C704.265 871.563 703.672 872.76 703.08 873.955L703.08 873.956C699.824 880.533 696.623 887.001 693.9 893.102C690.68 900.319 688.161 906.958 687.019 912.593C685.87 918.262 686.163 922.683 688.262 925.672C690.33 928.618 694.38 930.48 701.53 930.48C715.652 930.48 728.052 921.458 739.434 907.559C750.801 893.677 760.985 875.134 770.708 856.497C772.282 853.482 773.844 850.463 775.396 847.462L775.397 847.46C783.415 831.96 791.193 816.925 799.116 805.169C803.847 798.148 808.668 792.238 813.67 788.075C818.677 783.91 823.933 781.44 829.51 781.44C835.004 781.44 838.63 783.256 840.55 786.699C842.407 790.031 842.517 794.646 841.66 799.914C840.083 809.611 835.085 822.29 829.985 835.224L829.985 835.225C829.529 836.381 829.073 837.538 828.618 838.696C823.035 852.907 817.681 867.146 816.609 878.218C816.073 883.748 816.625 888.332 818.611 891.7C820.564 895.012 824.004 897.311 829.647 898.089C835.206 898.856 840.707 897.146 846.23 893.425C851.765 889.698 857.264 883.988 862.764 876.877C873.738 862.689 884.552 843.143 895.569 823.233L895.663 823.063C906.688 803.136 917.913 782.866 929.636 767.482C941.313 752.157 953.716 741.361 967.179 740.94C973.876 740.731 978.305 742.728 980.804 746.645C983.24 750.463 983.676 755.872 983.038 762.115C982.396 768.392 980.642 775.719 978.482 783.526C977.401 787.435 976.214 791.477 975.008 795.58L974.953 795.765C973.764 799.811 972.558 803.915 971.413 808.021C969.088 816.362 967.026 824.679 965.89 832.466C964.753 840.26 964.553 847.458 965.908 853.58C967.258 859.677 970.141 864.682 975.178 868.185C980.238 871.702 987.581 873.78 997.99 873.78V875.78C987.339 875.78 979.546 873.656 974.037 869.827C968.506 865.982 965.391 860.495 963.956 854.012C962.526 847.553 962.757 840.083 963.911 832.177C965.065 824.264 967.155 815.85 969.487 807.484C970.632 803.375 971.839 799.27 973.024 795.238L973.03 795.216L973.089 795.016C974.296 790.911 975.478 786.884 976.555 782.993C978.71 775.201 980.425 768.011 981.048 761.911C981.676 755.775 981.175 750.946 979.118 747.721ZM1292.17 842.093C1290.3 835.859 1286.38 829.044 1281.16 821.961C1275.94 814.869 1269.39 807.455 1262.21 800.021C1250.25 787.632 1236.48 775.138 1224.15 763.942L1224.15 763.942C1221.69 761.706 1219.28 759.522 1216.96 757.402C1209.97 751.023 1203.74 745.219 1198.94 740.275C1194.09 735.294 1190.82 731.301 1189.61 728.53C1189 727.13 1189.04 726.328 1189.3 725.885C1189.55 725.45 1190.23 724.963 1191.95 724.792C1195.36 724.453 1201.62 725.483 1211.56 728.322L1212.11 726.398C1202.2 723.567 1195.59 722.42 1191.75 722.802C1189.85 722.992 1188.31 723.59 1187.56 724.891C1186.82 726.184 1187.1 727.768 1187.78 729.329C1189.15 732.481 1192.69 736.715 1197.5 741.669C1202.35 746.66 1208.63 752.5 1215.61 758.878C1217.94 761.007 1220.35 763.197 1222.82 765.436C1235.15 776.633 1248.86 789.074 1260.77 801.41C1267.92 808.81 1274.41 816.153 1279.55 823.147C1284.71 830.15 1288.48 836.751 1290.25 842.667C1291.15 845.673 1291.68 848.087 1291.88 849.979C1292.07 851.891 1291.92 853.163 1291.57 853.959C1291.26 854.679 1290.77 855.042 1290.05 855.171C1289.25 855.315 1288.11 855.17 1286.57 854.647C1283.52 853.604 1279.38 851.228 1274.34 847.869C1269.31 844.524 1263.46 840.26 1256.97 835.499C1256.17 834.91 1255.36 834.313 1254.54 833.71C1242.11 824.573 1227.6 813.907 1212.45 804.622C1196.32 794.729 1179.4 786.355 1163.43 783.08C1155.53 781.459 1149.98 780.776 1146.42 780.967C1144.66 781.061 1143.24 781.376 1142.27 782.025C1141.76 782.362 1141.37 782.798 1141.12 783.342C1140.88 783.883 1140.83 784.463 1140.9 785.043C1141.04 786.164 1141.66 787.382 1142.54 788.641C1143.44 789.922 1144.68 791.349 1146.2 792.902C1149.22 796.009 1153.42 799.706 1158.33 803.859C1161.24 806.318 1164.41 808.94 1167.74 811.702L1167.74 811.706C1175.69 818.296 1184.6 825.681 1193.31 833.554C1205.67 844.726 1217.55 856.81 1225.58 868.855C1227.59 871.866 1228.91 874.272 1229.64 876.144C1230.38 878.057 1230.43 879.224 1230.18 879.883C1229.98 880.42 1229.49 880.854 1228.29 881.009C1227.06 881.168 1225.3 880.992 1223.02 880.463C1218.47 879.409 1212.18 877.042 1204.56 873.788C1196.96 870.539 1188.11 866.433 1178.44 861.926L1176.02 860.802C1157.24 852.047 1135.63 841.973 1114.46 833.878C1092.39 825.441 1070.69 819.109 1053.09 818.7C1046.07 818.537 1040.82 819.234 1037.13 820.702C1033.4 822.185 1031.18 824.495 1030.46 827.53C1029.76 830.49 1030.55 833.918 1032.29 837.559C1034.04 841.22 1036.82 845.229 1040.31 849.419C1054.26 866.16 1080.03 886.393 1099.48 899.901L1100.62 898.259C1081.19 884.767 1055.61 864.662 1041.85 848.139C1038.42 844.013 1035.75 840.148 1034.1 836.696C1032.43 833.224 1031.86 830.3 1032.41 827.989C1032.94 825.752 1034.57 823.871 1037.86 822.561C1041.19 821.236 1046.14 820.539 1053.05 820.7C1070.28 821.101 1091.71 827.324 1113.74 835.746C1134.85 843.815 1156.4 853.862 1175.2 862.624L1177.59 863.739C1187.26 868.243 1196.14 872.364 1203.78 875.627C1211.4 878.884 1217.83 881.314 1222.57 882.411C1224.92 882.958 1226.96 883.197 1228.54 882.993C1230.15 882.785 1231.5 882.078 1232.06 880.58C1232.57 879.205 1232.29 877.443 1231.5 875.418C1230.7 873.352 1229.29 870.809 1227.24 867.745C1219.07 855.49 1207.05 843.274 1194.66 832.07C1185.91 824.168 1176.95 816.735 1168.98 810.136L1168.98 810.134L1168.98 810.131C1165.65 807.377 1162.51 804.768 1159.62 802.331C1154.71 798.181 1150.58 794.538 1147.63 791.506C1146.15 789.99 1144.99 788.649 1144.18 787.492C1143.35 786.313 1142.96 785.424 1142.88 784.798C1142.85 784.505 1142.89 784.302 1142.95 784.154C1143.02 784.008 1143.14 783.849 1143.38 783.689C1143.9 783.343 1144.88 783.053 1146.53 782.964C1149.81 782.788 1155.14 783.421 1163.03 785.04C1178.65 788.245 1195.34 796.476 1211.41 806.327C1226.48 815.566 1240.92 826.186 1253.37 835.33C1254.18 835.931 1254.99 836.524 1255.79 837.111C1262.27 841.868 1268.16 846.159 1273.23 849.534C1278.28 852.896 1282.6 855.405 1285.93 856.54C1287.58 857.105 1289.11 857.371 1290.4 857.14C1291.78 856.894 1292.82 856.096 1293.41 854.76C1293.96 853.498 1294.08 851.819 1293.86 849.774C1293.65 847.709 1293.09 845.162 1292.17 842.093Z" fill="url(#paint37_linear_530_228)"/>
<path opacity="0.1" d="M431.157 796.448C297.927 796.448 275.557 840.701 40.5698 840.701V910.42H1339V761.38C1053.91 761.38 1090.6 823.584 845.032 823.584C599.459 823.584 546.534 796.448 431.157 796.448Z" fill="url(#paint38_linear_530_228)"/>
</g>
<path opacity="0.2" d="M518.507 468.869C632.589 354.787 632.629 169.784 518.598 55.6529C404.566 -58.4784 219.644 -58.5187 105.563 55.5628C-8.51878 169.644 -8.5592 354.647 105.472 468.778C219.504 582.91 404.426 582.95 518.507 468.869Z" fill="url(#paint39_linear_530_228)"/>
<path d="M122.438 487.741H127.982V854.347H122.438V487.741Z" fill="#0C5E59"/>
<path d="M86.6076 456.141C100.141 456.141 112.901 465.839 121.795 474.762C115.801 466.227 107.488 455.947 101.108 453.813C90.281 450.322 81.1942 452.068 81.1942 452.068C81.1942 452.068 91.4409 437.714 106.521 444.503C113.288 447.412 118.895 456.917 122.955 466.033C120.635 457.499 119.088 447.412 120.441 438.102C124.115 414.826 150.215 412.886 150.215 412.886C150.215 412.886 135.715 433.059 133.008 456.917C132.621 460.02 132.428 463.124 132.235 466.033C134.555 452.262 139.968 435.774 153.115 427.046C185.788 405.321 206.282 443.727 206.282 443.727C206.282 443.727 187.528 432.089 162.975 444.503C143.641 454.201 135.328 475.344 132.621 483.684C135.908 477.284 149.248 453.425 170.902 449.74C203.382 444.309 211.695 485.624 211.695 485.624C211.695 485.624 193.135 470.689 170.128 471.658C152.341 472.434 139.388 479.805 133.008 485.624C136.295 484.654 143.835 482.909 152.535 482.909C181.342 482.521 187.335 521.12 187.335 521.12L132.621 487.564C134.941 492.025 139.775 501.336 142.481 507.93C146.155 516.853 143.835 536.638 143.835 536.638C143.835 536.638 134.941 521.508 132.428 511.616C129.915 502.111 130.495 492.219 130.881 487.564L93.761 527.715C93.761 527.715 84.6743 503.275 112.515 491.443C116.188 489.891 119.475 488.534 121.988 487.564C115.221 488.534 107.101 491.249 98.7877 496.68C82.5475 507.155 72.3008 521.508 72.3008 521.508C72.3008 521.508 62.2474 491.831 86.9943 480.193C95.1143 476.314 104.394 476.896 112.321 478.641C106.328 475.15 98.5943 472.628 89.1209 473.792C66.6941 476.508 60.5074 492.607 60.5074 492.607C60.5074 492.607 54.1273 455.947 86.6076 456.141Z" fill="url(#paint40_linear_530_228)"/>
<path d="M280.375 830.59C277.988 819.607 274.05 809.221 268.8 799.671C268.084 798.358 267.249 796.925 266.414 795.612C260.328 785.465 252.81 776.392 244.099 768.513C243.025 767.438 241.832 766.483 240.639 765.528C231.331 757.769 220.711 751.442 209.256 746.905C207.824 746.308 206.392 745.831 204.96 745.353C193.505 741.294 181.095 739.026 168.327 738.788C167.611 738.788 166.776 738.788 166.06 738.788C165.344 738.788 164.508 738.788 163.792 738.788C150.905 739.026 138.614 741.294 127.159 745.353C125.727 745.831 124.295 746.428 122.863 746.905C111.408 751.442 100.788 757.769 91.4804 765.528C90.2871 766.483 89.0938 767.558 88.0199 768.513C79.309 776.392 71.6721 785.465 65.7058 795.612C64.8705 796.925 64.1545 798.358 63.3192 799.671C58.0688 809.221 54.1311 819.607 51.7445 830.59C51.3866 832.142 51.1479 833.694 50.7899 835.246C49.5966 841.931 49 848.736 49 855.66H283C283 848.736 282.403 841.812 281.21 835.246C280.971 833.694 280.733 832.142 280.375 830.59Z" fill="url(#paint41_linear_530_228)"/>
<path fill-rule="evenodd" clip-rule="evenodd" d="M163.793 738.668V855.66H168.327V738.668H166.06H163.793ZM122.864 746.905L151.979 855.779H156.633L127.04 745.353C126.696 745.479 126.344 745.604 125.986 745.731L125.985 745.731L125.985 745.731L125.985 745.731L125.985 745.731L125.985 745.731L125.985 745.731L125.985 745.731C124.976 746.09 123.92 746.465 122.864 746.905ZM138.376 855.66L88.0201 768.513L88.3425 768.226L88.3427 768.226C89.3305 767.346 90.4055 766.389 91.4805 765.528L143.507 855.66H138.376ZM63.3194 799.671L119.403 855.779H125.727L65.5866 795.612C65.2286 796.269 64.8408 796.955 64.453 797.641C64.0652 798.328 63.6774 799.014 63.3194 799.671ZM86.2301 855.66L50.79 835.246C50.9876 834.389 51.1489 833.533 51.3139 832.656L51.3139 832.656C51.4479 831.944 51.5843 831.219 51.7447 830.471L95.299 855.66H86.2301ZM175.367 855.779H180.021L209.137 746.905C207.705 746.308 206.273 745.831 204.841 745.353L175.367 855.779ZM193.744 855.779H188.493L240.639 765.648C241.832 766.603 243.026 767.558 244.1 768.632L193.744 855.779ZM206.273 855.779H212.597L268.681 799.671C267.965 798.358 267.13 796.925 266.294 795.612L206.273 855.779ZM245.89 855.779H236.821L280.375 830.709C280.733 832.261 281.091 833.813 281.33 835.365L245.89 855.779Z" fill="url(#paint42_linear_530_228)"/>
<path d="M129.373 789.029C118.404 789.029 114.29 779.427 114.29 766.053C114.29 752.678 110.52 741.704 95.7799 741.018C76.584 740.333 78.298 758.851 78.298 781.485C78.298 810.291 68.0144 791.773 53.6175 807.891C41.2772 821.608 57.0454 845.957 61.8444 853.158H123.888C125.945 849.386 131.087 840.127 136.914 828.81C149.94 804.804 140.342 789.029 129.373 789.029Z" fill="url(#paint43_linear_530_228)"/>
<path opacity="0.2" fill-rule="evenodd" clip-rule="evenodd" d="M99.8935 793.487H96.8086V836.495L83.8495 819.209L81.3813 821.061L96.8086 841.639V853.158H99.8935V820.664L112.966 804.444L110.564 802.506L99.8935 815.747V793.487Z" fill="white"/>
<path d="M1334 54H49V854H1234C1289.23 854 1334 809.228 1334 754V54Z" fill="url(#paint44_linear_530_228)"/>
</g>
<path opacity="0.2" d="M1084.36 805.553C1166.9 722.977 1166.9 589.094 1084.36 506.518C1001.82 423.941 867.993 423.941 785.452 506.518C702.912 589.094 702.912 722.977 785.452 805.553C867.993 888.129 1001.82 888.13 1084.36 805.553Z" fill="url(#paint45_linear_530_228)"/>
<path d="M673.272 836.483C671.702 829.247 669.11 822.404 665.655 816.112C665.184 815.247 664.634 814.303 664.084 813.438C660.079 806.753 655.132 800.775 649.399 795.584C648.692 794.876 647.907 794.247 647.121 793.618C640.996 788.506 634.007 784.337 626.468 781.348C625.525 780.955 624.583 780.64 623.64 780.326C616.101 777.652 607.934 776.157 599.531 776C599.06 776 598.51 776 598.039 776C597.568 776 597.018 776 596.547 776C588.066 776.157 579.977 777.652 572.438 780.326C571.496 780.64 570.553 781.034 569.611 781.348C562.072 784.337 555.083 788.506 548.957 793.618C548.172 794.247 547.387 794.955 546.68 795.584C540.947 800.775 535.921 806.753 531.994 813.438C531.445 814.303 530.973 815.247 530.424 816.112C526.968 822.404 524.377 829.247 522.806 836.483C522.571 837.506 522.414 838.528 522.178 839.551C521.393 843.955 521 848.438 521 853H675C675 848.438 674.607 843.876 673.822 839.551C673.665 838.528 673.508 837.506 673.272 836.483Z" fill="#F4F6D5"/>
<path d="M858.307 828.259C855.86 816.983 851.821 806.319 846.436 796.513C845.702 795.164 844.845 793.694 843.988 792.345C837.747 781.926 830.036 772.611 821.102 764.521C820 763.418 818.777 762.437 817.553 761.457C808.007 753.489 797.114 746.993 785.365 742.335C783.896 741.722 782.428 741.232 780.959 740.742C769.21 736.574 756.482 734.245 743.387 734C742.652 734 741.796 734 741.061 734C740.327 734 739.47 734 738.736 734C725.518 734.245 712.912 736.574 701.163 740.742C699.695 741.232 698.226 741.845 696.757 742.335C685.008 746.993 674.116 753.489 664.57 761.457C663.346 762.437 662.122 763.54 661.02 764.521C652.086 772.611 644.253 781.926 638.134 792.345C637.277 793.694 636.543 795.164 635.686 796.513C630.301 806.319 626.263 816.983 623.815 828.259C623.448 829.853 623.203 831.446 622.836 833.04C621.612 839.904 621 846.891 621 854H861C861 846.891 860.388 839.781 859.164 833.04C858.919 831.446 858.675 829.853 858.307 828.259Z" fill="white"/>
<mask id="mask5_530_228" style="mask-type:alpha" maskUnits="userSpaceOnUse" x="938" y="119" width="579" height="580">
<path opacity="0.56" d="M1432.26 613.321C1545.12 500.411 1545.12 317.349 1432.26 204.44C1319.4 91.5309 1136.41 91.531 1023.55 204.44C910.694 317.349 910.694 500.411 1023.55 613.32C1136.41 726.23 1319.4 726.23 1432.26 613.321Z" fill="url(#paint46_linear_530_228)"/>
</mask>
<g mask="url(#mask5_530_228)">
<rect x="912" y="8" width="422" height="810" fill="#D9D9D9"/>
</g>
<defs>
<linearGradient id="paint0_linear_530_228" x1="941.272" y1="1173.08" x2="-44.4885" y2="360.262" gradientUnits="userSpaceOnUse">
<stop stop-color="#FFEDBA"/>
<stop offset="1" stop-color="#EE4D47"/>
</linearGradient>
<linearGradient id="paint1_linear_530_228" x1="842" y1="1044" x2="-14.5252" y2="312.836" gradientUnits="userSpaceOnUse">
<stop stop-color="#FFEDBA"/>
<stop offset="1" stop-color="#EE4D47"/>
</linearGradient>
<linearGradient id="paint2_linear_530_228" x1="914" y1="-158" x2="914" y2="946" gradientUnits="userSpaceOnUse">
<stop stop-color="#F4A984"/>
<stop offset="1" stop-color="#F4A984" stop-opacity="0"/>
</linearGradient>
<linearGradient id="paint3_linear_530_228" x1="1147.95" y1="501.562" x2="1147.95" y2="781.313" gradientUnits="userSpaceOnUse">
<stop offset="0.240793" stop-color="#2CA77F"/>
<stop offset="1" stop-color="#1B8877"/>
</linearGradient>
<linearGradient id="paint4_linear_530_228" x1="1147.95" y1="501.562" x2="1147.95" y2="781.313" gradientUnits="userSpaceOnUse">
<stop offset="0.240793" stop-color="#2CA77F"/>
<stop offset="1" stop-color="#1B8877"/>
</linearGradient>
<linearGradient id="paint5_linear_530_228" x1="1147.95" y1="501.562" x2="1147.95" y2="781.313" gradientUnits="userSpaceOnUse">
<stop offset="0.240793" stop-color="#2CA77F"/>
<stop offset="1" stop-color="#1B8877"/>
</linearGradient>
<linearGradient id="paint6_linear_530_228" x1="1154.84" y1="512.726" x2="1154.84" y2="766.866" gradientUnits="userSpaceOnUse">
<stop stop-color="white"/>
<stop offset="1" stop-color="white" stop-opacity="0"/>
</linearGradient>
<linearGradient id="paint7_linear_530_228" x1="1265.82" y1="581.679" x2="1265.82" y2="775.403" gradientUnits="userSpaceOnUse">
<stop offset="0.422311" stop-color="#2CA77F"/>
<stop offset="1" stop-color="#1B8877"/>
</linearGradient>
<linearGradient id="paint8_linear_530_228" x1="1265.82" y1="581.679" x2="1265.82" y2="775.403" gradientUnits="userSpaceOnUse">
<stop offset="0.422311" stop-color="#2CA77F"/>
<stop offset="1" stop-color="#1B8877"/>
</linearGradient>
<linearGradient id="paint9_linear_530_228" x1="1264.84" y1="611.23" x2="1264.84" y2="769.493" gradientUnits="userSpaceOnUse">
<stop stop-color="white"/>
<stop offset="1" stop-color="white" stop-opacity="0"/>
</linearGradient>
<linearGradient id="paint10_linear_530_228" x1="959.478" y1="530.457" x2="959.478" y2="822.803" gradientUnits="userSpaceOnUse">
<stop offset="0.422311" stop-color="#2CA77F"/>
<stop offset="1" stop-color="#1B8877"/>
</linearGradient>
<linearGradient id="paint11_linear_530_228" x1="959.478" y1="530.457" x2="959.478" y2="822.803" gradientUnits="userSpaceOnUse">
<stop offset="0.422311" stop-color="#2CA77F"/>
<stop offset="1" stop-color="#1B8877"/>
</linearGradient>
<linearGradient id="paint12_linear_530_228" x1="951.269" y1="588.897" x2="951.269" y2="796.254" gradientUnits="userSpaceOnUse">
<stop stop-color="white"/>
<stop offset="1" stop-color="white" stop-opacity="0"/>
</linearGradient>
<linearGradient id="paint13_linear_530_228" x1="1133.16" y1="585.011" x2="1133.16" y2="644.03" gradientUnits="userSpaceOnUse">
<stop stop-color="#D3D86C"/>
<stop offset="1" stop-color="#82A637"/>
</linearGradient>
<linearGradient id="paint14_linear_530_228" x1="1039.59" y1="457.877" x2="1039.59" y2="565.918" gradientUnits="userSpaceOnUse">
<stop stop-color="#D3D86C"/>
<stop offset="1" stop-color="#82A637"/>
</linearGradient>
<linearGradient id="paint15_linear_530_228" x1="1300.88" y1="707.604" x2="1300.88" y2="725.714" gradientUnits="userSpaceOnUse">
<stop stop-color="#D3D86C"/>
<stop offset="1" stop-color="#82A637"/>
</linearGradient>
<linearGradient id="paint16_linear_530_228" x1="860.784" y1="622.394" x2="860.784" y2="770.547" gradientUnits="userSpaceOnUse">
<stop stop-color="#D3D86C"/>
<stop offset="1" stop-color="#82A637"/>
</linearGradient>
<linearGradient id="paint17_linear_530_228" x1="860.842" y1="658.771" x2="860.842" y2="770.547" gradientUnits="userSpaceOnUse">
<stop stop-color="#084F15" stop-opacity="0"/>
<stop offset="1" stop-color="#084F15"/>
</linearGradient>
<linearGradient id="paint18_linear_530_228" x1="835.702" y1="665.158" x2="835.702" y2="770.661" gradientUnits="userSpaceOnUse">
<stop stop-color="#084F15" stop-opacity="0"/>
<stop offset="1" stop-color="#084F15"/>
</linearGradient>
<linearGradient id="paint19_linear_530_228" x1="812.787" y1="684.434" x2="812.787" y2="770.547" gradientUnits="userSpaceOnUse">
<stop stop-color="#084F15" stop-opacity="0"/>
<stop offset="1" stop-color="#084F15"/>
</linearGradient>
<linearGradient id="paint20_linear_530_228" x1="792.494" y1="713.176" x2="792.494" y2="770.661" gradientUnits="userSpaceOnUse">
<stop stop-color="#084F15" stop-opacity="0"/>
<stop offset="1" stop-color="#084F15"/>
</linearGradient>
<linearGradient id="paint21_linear_530_228" x1="771.972" y1="746.481" x2="771.972" y2="770.547" gradientUnits="userSpaceOnUse">
<stop stop-color="#084F15" stop-opacity="0"/>
<stop offset="1" stop-color="#084F15"/>
</linearGradient>
<linearGradient id="paint22_linear_530_228" x1="885.866" y1="665.158" x2="885.866" y2="770.661" gradientUnits="userSpaceOnUse">
<stop stop-color="#084F15" stop-opacity="0"/>
<stop offset="1" stop-color="#084F15"/>
</linearGradient>
<linearGradient id="paint23_linear_530_228" x1="908.838" y1="684.548" x2="908.838" y2="770.661" gradientUnits="userSpaceOnUse">
<stop stop-color="#084F15" stop-opacity="0"/>
<stop offset="1" stop-color="#084F15"/>
</linearGradient>
<linearGradient id="paint24_linear_530_228" x1="929.075" y1="713.176" x2="929.075" y2="770.661" gradientUnits="userSpaceOnUse">
<stop stop-color="#084F15" stop-opacity="0"/>
<stop offset="1" stop-color="#084F15"/>
</linearGradient>
<linearGradient id="paint25_linear_530_228" x1="984.197" y1="676.382" x2="984.197" y2="770.661" gradientUnits="userSpaceOnUse">
<stop stop-color="#D3D86C"/>
<stop offset="1" stop-color="#82A637"/>
</linearGradient>
<linearGradient id="paint26_linear_530_228" x1="984.31" y1="699.604" x2="984.31" y2="770.661" gradientUnits="userSpaceOnUse">
<stop stop-color="#084F15" stop-opacity="0"/>
<stop offset="1" stop-color="#084F15"/>
</linearGradient>
<linearGradient id="paint27_linear_530_228" x1="968.464" y1="703.482" x2="968.464" y2="770.547" gradientUnits="userSpaceOnUse">
<stop stop-color="#084F15" stop-opacity="0"/>
<stop offset="1" stop-color="#084F15"/>
</linearGradient>
<linearGradient id="paint28_linear_530_228" x1="953.871" y1="715.914" x2="953.871" y2="770.661" gradientUnits="userSpaceOnUse">
<stop stop-color="#084F15" stop-opacity="0"/>
<stop offset="1" stop-color="#084F15"/>
</linearGradient>
<linearGradient id="paint29_linear_530_228" x1="940.931" y1="734.049" x2="940.931" y2="770.547" gradientUnits="userSpaceOnUse">
<stop stop-color="#084F15" stop-opacity="0"/>
<stop offset="1" stop-color="#084F15"/>
</linearGradient>
<linearGradient id="paint30_linear_530_228" x1="927.935" y1="755.378" x2="927.935" y2="770.661" gradientUnits="userSpaceOnUse">
<stop stop-color="#084F15" stop-opacity="0"/>
<stop offset="1" stop-color="#084F15"/>
</linearGradient>
<linearGradient id="paint31_linear_530_228" x1="1000.27" y1="703.71" x2="1000.27" y2="770.661" gradientUnits="userSpaceOnUse">
<stop stop-color="#084F15" stop-opacity="0"/>
<stop offset="1" stop-color="#084F15"/>
</linearGradient>
<linearGradient id="paint32_linear_530_228" x1="1014.87" y1="715.914" x2="1014.87" y2="770.661" gradientUnits="userSpaceOnUse">
<stop stop-color="#084F15" stop-opacity="0"/>
<stop offset="1" stop-color="#084F15"/>
</linearGradient>
<linearGradient id="paint33_linear_530_228" x1="1027.8" y1="734.163" x2="1027.8" y2="770.661" gradientUnits="userSpaceOnUse">
<stop stop-color="#084F15" stop-opacity="0"/>
<stop offset="1" stop-color="#084F15"/>
</linearGradient>
<linearGradient id="paint34_linear_530_228" x1="1040.8" y1="755.378" x2="1040.8" y2="770.661" gradientUnits="userSpaceOnUse">
<stop stop-color="#084F15" stop-opacity="0"/>
<stop offset="1" stop-color="#084F15"/>
</linearGradient>
<linearGradient id="paint35_linear_530_228" x1="368.869" y1="482.786" x2="368.869" y2="951.717" gradientUnits="userSpaceOnUse">
<stop offset="0.278352" stop-color="#EEEF99"/>
<stop offset="0.76976" stop-color="#B9D079"/>
</linearGradient>
<linearGradient id="paint36_linear_530_228" x1="368.869" y1="482.786" x2="368.869" y2="951.717" gradientUnits="userSpaceOnUse">
<stop offset="0.278352" stop-color="#EEEF99"/>
<stop offset="0.76976" stop-color="#B9D079"/>
</linearGradient>
<linearGradient id="paint37_linear_530_228" x1="765.755" y1="767.737" x2="765.755" y2="980.053" gradientUnits="userSpaceOnUse">
<stop stop-color="white"/>
<stop offset="1" stop-color="white" stop-opacity="0"/>
</linearGradient>
<linearGradient id="paint38_linear_530_228" x1="689.785" y1="704.774" x2="689.785" y2="914.992" gradientUnits="userSpaceOnUse">
<stop offset="0.164151" stop-color="#82A637"/>
<stop offset="0.890649" stop-color="#1B8877"/>
</linearGradient>
<linearGradient id="paint39_linear_530_228" x1="105.584" y1="-42.4676" x2="105.662" y2="313.265" gradientUnits="userSpaceOnUse">
<stop stop-color="white"/>
<stop offset="1" stop-color="white" stop-opacity="0"/>
</linearGradient>
<linearGradient id="paint40_linear_530_228" x1="135.848" y1="372.444" x2="135.848" y2="536.638" gradientUnits="userSpaceOnUse">
<stop stop-color="#D3D86C"/>
<stop offset="1" stop-color="#82A637"/>
</linearGradient>
<linearGradient id="paint41_linear_530_228" x1="166" y1="700.593" x2="166" y2="855.66" gradientUnits="userSpaceOnUse">
<stop stop-color="#D3D86C"/>
<stop offset="1" stop-color="#82A637"/>
</linearGradient>
<linearGradient id="paint42_linear_530_228" x1="259.075" y1="738.397" x2="259.075" y2="1009.89" gradientUnits="userSpaceOnUse">
<stop stop-color="#084F15" stop-opacity="0"/>
<stop offset="1" stop-color="#084F15"/>
</linearGradient>
<linearGradient id="paint43_linear_530_228" x1="96.0952" y1="741" x2="96.0952" y2="875.947" gradientUnits="userSpaceOnUse">
<stop offset="0.422311" stop-color="#2CA77F"/>
<stop offset="1" stop-color="#1B8877"/>
</linearGradient>
<linearGradient id="paint44_linear_530_228" x1="941.272" y1="518" x2="941.272" y2="-174" gradientUnits="userSpaceOnUse">
<stop stop-color="#FFEDBA" stop-opacity="0"/>
<stop offset="1" stop-color="#EB2A24"/>
</linearGradient>
<linearGradient id="paint45_linear_530_228" x1="785.452" y1="435.575" x2="785.565" y2="693.011" gradientUnits="userSpaceOnUse">
<stop stop-color="white"/>
<stop offset="1" stop-color="white" stop-opacity="0"/>
</linearGradient>
<linearGradient id="paint46_linear_530_228" x1="1023.55" y1="107.438" x2="1023.71" y2="459.438" gradientUnits="userSpaceOnUse">
<stop stop-color="white"/>
<stop offset="1" stop-color="white" stop-opacity="0"/>
</linearGradient>
<clipPath id="clip0_530_228">
<rect width="126.085" height="112.294" fill="white" transform="translate(1237.92 667.706)"/>
</clipPath>
</defs>
</svg>
